<?xml version="1.0" encoding="UTF-8"?>
<svg version="1.1" xmlns="http://www.w3.org/2000/svg" width="500" height="500">
<path d="M0 0 C0.84691406 0.78310547 0.84691406 0.78310547 1.7109375 1.58203125 C1.7109375 2.57203125 1.7109375 3.56203125 1.7109375 4.58203125 C2.83113281 4.71480469 3.95132813 4.84757813 5.10546875 4.984375 C6.57814479 5.16259694 8.05079997 5.34099136 9.5234375 5.51953125 C10.26142578 5.60654297 10.99941406 5.69355469 11.75976562 5.78320312 C14.87826871 6.16419671 17.72201872 6.58572499 20.7109375 7.58203125 C22.49089885 7.60442517 24.27176313 7.57383509 26.05078125 7.51171875 C45.56996343 7.23074956 45.56996343 7.23074956 51.40063477 12.2824707 C53.64590659 14.60870828 55.69636661 17.05504338 57.7109375 19.58203125 C62.37821604 24.34759883 62.37821604 24.34759883 68.7109375 25.58203125 C68.7109375 24.92203125 68.7109375 24.26203125 68.7109375 23.58203125 C70.94965988 21.83127346 73.18750504 20.19301916 75.5234375 18.58203125 C76.16603516 18.13085938 76.80863281 17.6796875 77.47070312 17.21484375 C85.87149158 11.32993909 85.87149158 11.32993909 91.69140625 11.38671875 C93.43647461 11.39638672 93.43647461 11.39638672 95.21679688 11.40625 C96.43173828 11.42300781 97.64667969 11.43976563 98.8984375 11.45703125 C100.12498047 11.46605469 101.35152344 11.47507813 102.61523438 11.484375 C105.64733045 11.50797108 108.67903688 11.54089284 111.7109375 11.58203125 C109.88447393 15.63830021 107.64381081 17.39850817 104.0234375 20.01953125 C103.21640381 20.6072229 103.21640381 20.6072229 102.39306641 21.20678711 C100.83671603 22.33789108 99.27396148 23.4601673 97.7109375 24.58203125 C96.95941406 25.14148438 96.20789063 25.7009375 95.43359375 26.27734375 C90.96754464 29.58203125 90.96754464 29.58203125 88.7109375 29.58203125 C88.7109375 30.24203125 88.7109375 30.90203125 88.7109375 31.58203125 C87.03125 33.08984375 87.03125 33.08984375 84.8359375 34.70703125 C84.11664063 35.24585938 83.39734375 35.7846875 82.65625 36.33984375 C80.7109375 37.58203125 80.7109375 37.58203125 78.7109375 37.58203125 C79.2059375 38.03578125 79.7009375 38.48953125 80.2109375 38.95703125 C81.7109375 40.58203125 81.7109375 40.58203125 81.7109375 42.58203125 C82.5153125 42.92234375 82.5153125 42.92234375 83.3359375 43.26953125 C86.53553911 45.03773214 89.00130973 47.11873328 91.7109375 49.58203125 C91.7109375 50.24203125 91.7109375 50.90203125 91.7109375 51.58203125 C92.27296875 51.82953125 92.835 52.07703125 93.4140625 52.33203125 C96.10186319 53.79477992 98.17499232 55.55007998 100.4609375 57.58203125 C101.65976562 58.63390625 101.65976562 58.63390625 102.8828125 59.70703125 C104.7109375 61.58203125 104.7109375 61.58203125 104.7109375 63.58203125 C100.86711398 65.50394301 96.12625579 64.76683322 91.8984375 64.76953125 C90.90005859 64.78177734 89.90167969 64.79402344 88.87304688 64.80664062 C87.42188477 64.80954102 87.42188477 64.80954102 85.94140625 64.8125 C85.05864014 64.81660889 84.17587402 64.82071777 83.26635742 64.82495117 C76.43609931 64.17566228 72.65940625 59.95060815 68.08398438 55.30664062 C65.3620831 52.50045348 65.3620831 52.50045348 61.75390625 51.45703125 C58.68041356 53.14950906 55.89060739 55.17465946 53.0859375 57.26953125 C51.82322652 58.18452032 50.55889756 59.09728064 49.29296875 60.0078125 C48.67760254 60.4507666 48.06223633 60.8937207 47.42822266 61.35009766 C40.50483709 66.31674588 34.45814239 69.02165925 26.17480469 70.90600586 C20.69945136 72.28456704 17.83295191 74.7032523 13.93359375 78.6171875 C1.30013322 89.78525542 -19.56538491 88.31632881 -35.2890625 87.58203125 C-42.43316972 87.00277931 -49.38846967 85.47631163 -56.2890625 83.58203125 C-56.2890625 82.92203125 -56.2890625 82.26203125 -56.2890625 81.58203125 C-54.46375 81.55109375 -54.46375 81.55109375 -52.6015625 81.51953125 C-51.91707031 81.50792969 -51.23257813 81.49632812 -50.52734375 81.484375 C-48.2890625 81.58203125 -48.2890625 81.58203125 -46.06835938 82.07324219 C-27.34643122 85.5005523 -4.25108519 84.2191047 11.7109375 73.58203125 C11.09089844 73.61232422 10.47085938 73.64261719 9.83203125 73.67382812 C-3.81538747 74.31944837 -17.44045263 74.68931256 -31.1015625 74.70703125 C-33.07286133 74.71379883 -33.07286133 74.71379883 -35.08398438 74.72070312 C-42.08968939 74.71003995 -48.99001284 74.42724224 -55.96850586 73.82714844 C-63.4904778 73.27189075 -71.04682703 73.21838915 -78.5859375 73.06445312 C-87.62725414 72.82533647 -96.35926246 71.94743678 -105.2890625 70.58203125 C-105.2890625 70.25203125 -105.2890625 69.92203125 -105.2890625 69.58203125 C-103.10281402 69.38046224 -100.91491183 69.19684366 -98.7265625 69.01953125 C-96.89931641 68.86291016 -96.89931641 68.86291016 -95.03515625 68.703125 C-91.18692647 68.5109929 -87.44199732 68.75038172 -83.6015625 69.04296875 C-73.68755869 69.76766405 -63.78839568 69.78082786 -53.8515625 69.76953125 C-52.87082764 69.768927 -51.89009277 69.76832275 -50.87963867 69.7677002 C-38.00139226 69.74626259 -25.14815327 69.55608492 -12.2890625 68.83203125 C-11.04713135 68.77039795 -9.8052002 68.70876465 -8.52563477 68.64526367 C2.7062956 67.9012072 12.83096036 65.60228572 21.89453125 58.71875 C25.53635392 55.9558138 29.30742913 53.4032508 33.0859375 50.83203125 C34.44875526 49.90096586 35.81077662 48.96873335 37.171875 48.03515625 C37.7915918 47.61041016 38.41130859 47.18566406 39.04980469 46.74804688 C40.41576263 45.78922631 41.74492606 44.77819961 43.0625 43.75390625 C44.7109375 42.58203125 44.7109375 42.58203125 46.7109375 42.58203125 C46.7109375 41.92203125 46.7109375 41.26203125 46.7109375 40.58203125 C47.7009375 39.92203125 48.6909375 39.26203125 49.7109375 38.58203125 C48.32826173 35.39284442 46.7935847 33.50855484 44.1484375 31.26953125 C43.44589844 30.67140625 42.74335938 30.07328125 42.01953125 29.45703125 C38.87736351 26.90501684 35.65500617 24.46641978 32.3984375 22.0625 C31.8415625 21.57394531 31.2846875 21.08539063 30.7109375 20.58203125 C30.7109375 19.92203125 30.7109375 19.26203125 30.7109375 18.58203125 C27.94699015 17.18129775 25.16255977 15.85153178 22.3359375 14.58203125 C21.24152344 14.08703125 21.24152344 14.08703125 20.125 13.58203125 C13.54758457 10.85740609 8.04566027 10.31789297 0.953125 10.21875 C-3.1478608 9.41337568 -4.00169435 7.96358462 -6.2890625 4.58203125 C-23.22087235 -4.5702984 -52.93642379 2.98277206 -70.8125 5.64453125 C-72.97114684 5.95846018 -75.12997772 6.27112856 -77.2890625 6.58203125 C-78.03027344 6.69385742 -78.77148438 6.80568359 -79.53515625 6.92089844 C-87.47904167 7.98084847 -95.53895573 7.82228828 -103.5390625 7.83203125 C-104.73411407 7.83503738 -104.73411407 7.83503738 -105.95330811 7.83810425 C-136.73898118 7.85707191 -136.73898118 7.85707191 -145.2890625 3.58203125 C-145.2890625 2.92203125 -145.2890625 2.26203125 -145.2890625 1.58203125 C-144.64582031 1.64261719 -144.00257813 1.70320312 -143.33984375 1.765625 C-141.44020673 1.94176823 -139.54019027 2.11384823 -137.63989258 2.28271484 C-135.56446012 2.46810502 -133.48953483 2.6594027 -131.41552734 2.86010742 C-122.45568055 3.65707691 -113.58123378 3.69149722 -104.6015625 3.45703125 C-103.82981689 3.43824921 -103.05807129 3.41946716 -102.26293945 3.40011597 C-86.24435068 2.96760751 -70.70423668 0.72431968 -54.9140625 -1.84863281 C-13.48766601 -8.35498765 -13.48766601 -8.35498765 0 0 Z " fill="#75CC7F" transform="translate(289.2890625,207.41796875)"/>
<path d="M0 0 C8.48442224 -0.04644497 16.9687909 -0.08193079 25.45330906 -0.10362434 C29.3934791 -0.11403883 33.33356183 -0.12815512 37.27368164 -0.15087891 C41.07974538 -0.17269091 44.8857254 -0.18458617 48.69184685 -0.18975449 C50.14023086 -0.19343529 51.58861055 -0.20062286 53.03695869 -0.21146011 C55.07364751 -0.22608649 57.1099952 -0.22797335 59.14672852 -0.22705078 C60.30366714 -0.231492 61.46060577 -0.23593323 62.65260315 -0.24050903 C67.58358212 0.1137797 72.82961409 1.21974273 77 4 C79.74557095 8.56600386 79.6740395 12.81614984 79 18 C75.89278152 29.01528953 70.57398543 38.4003311 62 46 C61.34 46 60.68 46 60 46 C60 46.66 60 47.32 60 48 C52.28182776 51.32479462 45.79703965 52.56463981 37.42578125 52.390625 C36.37593552 52.38496521 35.32608978 52.37930542 34.24443054 52.37347412 C30.93329769 52.35131214 27.62329866 52.30115438 24.3125 52.25 C22.05014598 52.22990891 19.78777478 52.21166275 17.52539062 52.1953125 C12.01654859 52.15151404 6.50835533 52.08480828 1 52 C1.5721281 47.17587823 2.99797112 43.4605723 5.125 39.10546875 C5.43195801 38.47264481 5.73891602 37.83982086 6.05517578 37.18782043 C6.70051032 35.86084718 7.34949639 34.53564409 8.00195312 33.2121582 C9.00387028 31.17964868 9.99504295 29.14217635 10.984375 27.10351562 C15.825312 17.174688 15.825312 17.174688 17 16 C19.69654854 15.92680379 22.36691458 15.90757463 25.0625 15.9375 C26.20041992 15.94426758 26.20041992 15.94426758 27.36132812 15.95117188 C29.24091871 15.9629932 31.12046899 15.98092922 33 16 C30.76686274 23.44379088 27.59727921 30.11976695 24 37 C27.89569135 37.08732726 31.79112982 37.14050185 35.6875 37.1875 C37.34168945 37.22520508 37.34168945 37.22520508 39.02929688 37.26367188 C40.6293457 37.27817383 40.6293457 37.27817383 42.26171875 37.29296875 C43.24100342 37.3086792 44.22028809 37.32438965 45.22924805 37.34057617 C48.5080115 36.93755608 50.3408418 35.92827171 53 34 C57.29422074 28.1191977 59.72609659 22.25844028 60 15 C56.69826083 13.34913041 53.02297558 13.97162874 49.3984375 14.03515625 C47.60938224 14.04119818 45.82031537 14.04435254 44.03125 14.04492188 C41.22393557 14.04662298 38.42086064 14.06143338 35.61425781 14.12670898 C21.61835111 14.42819392 11.82013063 12.28778927 1 3 C0.67 2.01 0.34 1.02 0 0 Z " fill="#E5E5E5" transform="translate(91,219)"/>
<path d="M0 0 C0.84691406 0.78310547 0.84691406 0.78310547 1.7109375 1.58203125 C1.7109375 2.57203125 1.7109375 3.56203125 1.7109375 4.58203125 C2.83113281 4.71480469 3.95132813 4.84757813 5.10546875 4.984375 C6.57814479 5.16259694 8.05079997 5.34099136 9.5234375 5.51953125 C10.26142578 5.60654297 10.99941406 5.69355469 11.75976562 5.78320312 C14.87826871 6.16419671 17.72201872 6.58572499 20.7109375 7.58203125 C22.49089885 7.60442517 24.27176313 7.57383509 26.05078125 7.51171875 C45.56996343 7.23074956 45.56996343 7.23074956 51.40063477 12.2824707 C53.64590659 14.60870828 55.69636661 17.05504338 57.7109375 19.58203125 C62.37821604 24.34759883 62.37821604 24.34759883 68.7109375 25.58203125 C68.7109375 24.92203125 68.7109375 24.26203125 68.7109375 23.58203125 C70.94965988 21.83127346 73.18750504 20.19301916 75.5234375 18.58203125 C76.16603516 18.13085938 76.80863281 17.6796875 77.47070312 17.21484375 C85.87149158 11.32993909 85.87149158 11.32993909 91.69140625 11.38671875 C93.43647461 11.39638672 93.43647461 11.39638672 95.21679688 11.40625 C96.43173828 11.42300781 97.64667969 11.43976563 98.8984375 11.45703125 C100.12498047 11.46605469 101.35152344 11.47507813 102.61523438 11.484375 C105.64733045 11.50797108 108.67903688 11.54089284 111.7109375 11.58203125 C110.86328125 13.53515625 110.86328125 13.53515625 109.7109375 15.58203125 C106.91496464 16.44233059 104.63922676 16.58203125 101.7109375 16.58203125 C99.72845867 17.80115718 99.72845867 17.80115718 97.69140625 19.4609375 C96.91603516 20.05197266 96.14066406 20.64300781 95.34179688 21.25195312 C93.71830358 22.5094791 92.10103325 23.77508206 90.49023438 25.04882812 C84.45627759 29.61547036 84.45627759 29.61547036 80.40234375 29.43359375 C79.51417969 29.15257812 78.62601563 28.8715625 77.7109375 28.58203125 C73.85845609 29.04034369 70.51669882 29.77626993 67.7109375 32.58203125 C63.57262761 32.28106326 61.19246726 31.90305109 57.7109375 29.58203125 C57.3809375 30.24203125 57.0509375 30.90203125 56.7109375 31.58203125 C56.0509375 30.92203125 55.3909375 30.26203125 54.7109375 29.58203125 C53.7209375 30.24203125 52.7309375 30.90203125 51.7109375 31.58203125 C52.7009375 34.55203125 52.7009375 34.55203125 53.7109375 37.58203125 C53.0509375 37.58203125 52.3909375 37.58203125 51.7109375 37.58203125 C51.7109375 36.92203125 51.7109375 36.26203125 51.7109375 35.58203125 C51.12699219 35.48148438 50.54304687 35.3809375 49.94140625 35.27734375 C47.30283394 34.45481158 46.03549532 33.33832641 44.0234375 31.45703125 C40.31644817 28.07117471 36.43621601 25.04308988 32.3984375 22.0625 C31.8415625 21.57394531 31.2846875 21.08539063 30.7109375 20.58203125 C30.7109375 19.92203125 30.7109375 19.26203125 30.7109375 18.58203125 C27.94699015 17.18129775 25.16255977 15.85153178 22.3359375 14.58203125 C21.24152344 14.08703125 21.24152344 14.08703125 20.125 13.58203125 C13.54758457 10.85740609 8.04566027 10.31789297 0.953125 10.21875 C-3.1478608 9.41337568 -4.00169435 7.96358462 -6.2890625 4.58203125 C-23.22087235 -4.5702984 -52.93642379 2.98277206 -70.8125 5.64453125 C-72.97114684 5.95846018 -75.12997772 6.27112856 -77.2890625 6.58203125 C-78.03027344 6.69385742 -78.77148438 6.80568359 -79.53515625 6.92089844 C-87.47904167 7.98084847 -95.53895573 7.82228828 -103.5390625 7.83203125 C-104.73411407 7.83503738 -104.73411407 7.83503738 -105.95330811 7.83810425 C-136.73898118 7.85707191 -136.73898118 7.85707191 -145.2890625 3.58203125 C-145.2890625 2.92203125 -145.2890625 2.26203125 -145.2890625 1.58203125 C-144.64582031 1.64261719 -144.00257813 1.70320312 -143.33984375 1.765625 C-141.44020673 1.94176823 -139.54019027 2.11384823 -137.63989258 2.28271484 C-135.56446012 2.46810502 -133.48953483 2.6594027 -131.41552734 2.86010742 C-122.45568055 3.65707691 -113.58123378 3.69149722 -104.6015625 3.45703125 C-103.82981689 3.43824921 -103.05807129 3.41946716 -102.26293945 3.40011597 C-86.24435068 2.96760751 -70.70423668 0.72431968 -54.9140625 -1.84863281 C-13.48766601 -8.35498765 -13.48766601 -8.35498765 0 0 Z " fill="#6D8B6A" transform="translate(289.2890625,207.41796875)"/>
<path d="M0 0 C0.88365234 0.00451172 1.76730469 0.00902344 2.67773438 0.01367188 C4.84768559 0.02540134 7.01760172 0.04333505 9.1875 0.0625 C9.1875 3.62422735 8.44079283 4.42784757 6.3125 7.1875 C5.77882813 7.89132813 5.24515625 8.59515625 4.6953125 9.3203125 C1.2675723 13.28086206 -3.90042278 12.62167256 -8.8125 13.0625 C-5.5125 13.3925 -2.2125 13.7225 1.1875 14.0625 C1.1875 18.33411897 0.78762446 19.36470167 -1.5625 22.75 C-2.32820313 23.93142578 -2.32820313 23.93142578 -3.109375 25.13671875 C-7.50834771 28.27066896 -12.5344789 27.9193584 -17.8125 28.0625 C-18.10495605 28.71847168 -18.39741211 29.37444336 -18.69873047 30.05029297 C-20.02360179 33.01483049 -21.35545593 35.97617889 -22.6875 38.9375 C-23.14769531 39.97003906 -23.60789063 41.00257813 -24.08203125 42.06640625 C-24.52675781 43.05253906 -24.97148437 44.03867187 -25.4296875 45.0546875 C-25.83815918 45.96589355 -26.24663086 46.87709961 -26.66748047 47.81591797 C-27.8125 50.0625 -27.8125 50.0625 -29.8125 52.0625 C-32.39314129 52.20747985 -34.86193884 52.24927545 -37.4375 52.1875 C-38.14390625 52.17847656 -38.8503125 52.16945313 -39.578125 52.16015625 C-41.32306098 52.13657603 -43.06782295 52.10070461 -44.8125 52.0625 C-44.2659915 46.63157174 -42.3029844 42.56706112 -39.8125 37.8125 C-39.44382813 37.09320313 -39.07515625 36.37390625 -38.6953125 35.6328125 C-37.74087002 33.77269467 -36.77730898 31.9172621 -35.8125 30.0625 C-35.4825 29.4025 -35.1525 28.7425 -34.8125 28.0625 C-35.8025 27.7325 -36.7925 27.4025 -37.8125 27.0625 C-37.38338185 21.69852308 -36.46620425 18.1111993 -32.8125 14.0625 C-29.5625 13.6875 -29.5625 13.6875 -26.8125 14.0625 C-26.68875 13.216875 -26.565 12.37125 -26.4375 11.5 C-24.00018088 6.34413263 -19.75295106 3.75123124 -14.8125 1.0625 C-10.03873261 -0.43879081 -4.95533777 -0.04803832 0 0 Z " fill="#EDECED" transform="translate(272.8125,218.9375)"/>
<path d="M0 0 C-0.66498383 4.38889325 -2.18757677 7.9811485 -4 12 C-1.36 12.33 1.28 12.66 4 13 C5.21754825 16.65264474 4.72994306 17.64814748 3.25 21.125 C1.87890625 23.8125 1.87890625 23.8125 0 26 C-3.89778118 27.22454836 -6.84048984 27.10022916 -11 27 C-12.98 31.29 -14.96 35.58 -17 40 C-13.04 40 -9.08 40 -5 40 C-6.14062918 44.56251673 -7.3813979 47.89257589 -11 51 C-14.38564719 51.95572835 -17.56902697 51.84617974 -21.0625 51.6875 C-21.96033203 51.68943359 -22.85816406 51.69136719 -23.78320312 51.69335938 C-27.69816033 51.60894766 -30.28758615 51.42620392 -33.68359375 49.39453125 C-35.61870023 45.87458979 -34.98239746 43.84398674 -34 40 C-33.06164799 37.65282032 -32.03973537 35.33732618 -30.9375 33.0625 C-30.38964844 31.91910156 -29.84179688 30.77570313 -29.27734375 29.59765625 C-28.85582031 28.74042969 -28.43429687 27.88320312 -28 27 C-29.32 26.34 -30.64 25.68 -32 25 C-31.41586367 20.18087526 -29.7877118 16.91786524 -27 13 C-25.00577205 12.63371323 -23.00546689 12.29868656 -21 12 C-20.59910156 11.07058594 -20.19820313 10.14117187 -19.78515625 9.18359375 C-17.48209367 5.07638149 -14.74605028 4.10505181 -10.5 2.625 C-9.82324219 2.36589844 -9.14648438 2.10679687 -8.44921875 1.83984375 C-5.50784324 0.74335465 -3.16053738 0 0 0 Z " fill="#E8E8E9" transform="translate(304,220)"/>
<path d="M0 0 C0.495 0.99 0.495 0.99 1 2 C1.97066406 1.67257813 2.94132812 1.34515625 3.94140625 1.0078125 C8.3010926 -0.23781217 12.43375972 -0.2253404 16.9375 -0.125 C17.71673828 -0.11597656 18.49597656 -0.10695312 19.29882812 -0.09765625 C21.19935447 -0.07433691 23.09972008 -0.03847586 25 0 C25.495 0.99 25.495 0.99 26 2 C24.6875 4.625 24.6875 4.625 23 7 C22.34 7 21.68 7 21 7 C20.566875 7.928125 20.566875 7.928125 20.125 8.875 C19 11 19 11 17 13 C14.22831148 13.25728754 11.52718842 13.42065176 8.75 13.5 C1.11318741 13.59308194 1.11318741 13.59308194 -6 16 C-7.79104088 18.41312858 -8.97668666 21.00909191 -10.1875 23.75 C-10.51685547 24.45382812 -10.84621094 25.15765625 -11.18554688 25.8828125 C-11.80663146 27.21141492 -12.41933704 28.54399527 -13.02026367 29.88183594 C-14.28544887 32.61713293 -15.65222085 35.30444169 -17 38 C-21.95 38 -26.9 38 -32 38 C-32 32.78289949 -30.78952826 29.94230457 -28.4375 25.5 C-28.07180908 24.80165039 -27.70611816 24.10330078 -27.3293457 23.38378906 C-26.57831856 21.95043919 -25.8246524 20.518469 -25.06835938 19.08789062 C-24.07644162 17.14938957 -23.17420007 15.19551551 -22.296875 13.203125 C-19.56077039 7.33245394 -17.65127056 3.59743534 -11.4375 1.1875 C-7.59296584 0.16546819 -3.9898605 -0.43133627 0 0 Z " fill="#E4E3E4" transform="translate(192,233)"/>
<path d="M0 0 C0.99 0.33 1.98 0.66 3 1 C2.01 1.33 1.02 1.66 0 2 C-0.33 2.99 -0.66 3.98 -1 5 C-2.33076989 5.34342449 -3.66431979 5.67619874 -5 6 C-5.66 6.99 -6.32 7.98 -7 9 C-8.11375 9.309375 -9.2275 9.61875 -10.375 9.9375 C-14.32117878 11.09413861 -15.22361874 12.13948597 -18 15 C-20.05963284 16.15550268 -22.15249671 17.17119976 -24.29296875 18.16796875 C-25.98807411 18.87947032 -25.98807411 18.87947032 -27 20 C-29.31 20.33 -31.62 20.66 -34 21 C-25.42 20.67 -16.84 20.34 -8 20 C-12 22 -12 22 -15.6875 22.625 C-19.4979004 23.502164 -21.45672187 25.11047234 -24.25 27.8125 C-37.434215 40.25171655 -56.46950377 39.59627642 -73.46972656 39.11816406 C-81.49557461 38.74335603 -89.26683686 37.1228291 -97 35 C-97 34.34 -97 33.68 -97 33 C-95.783125 32.979375 -94.56625 32.95875 -93.3125 32.9375 C-92.62800781 32.92589844 -91.94351563 32.91429687 -91.23828125 32.90234375 C-89 33 -89 33 -86.77929688 33.49121094 C-68.05736872 36.91852105 -44.96202269 35.63707345 -29 25 C-29.93005859 25.04543945 -29.93005859 25.04543945 -30.87890625 25.09179688 C-44.52632497 25.73741712 -58.15139013 26.10728131 -71.8125 26.125 C-73.78379883 26.13176758 -73.78379883 26.13176758 -75.79492188 26.13867188 C-82.80062689 26.1280087 -89.70095034 25.84521099 -96.67944336 25.24511719 C-104.2014153 24.6898595 -111.75776453 24.6363579 -119.296875 24.48242188 C-128.33819164 24.24330522 -137.07019996 23.36540553 -146 22 C-146 21.67 -146 21.34 -146 21 C-143.81375152 20.79843099 -141.62584933 20.61481241 -139.4375 20.4375 C-138.21933594 20.33308594 -137.00117188 20.22867187 -135.74609375 20.12109375 C-131.89786397 19.92896165 -128.15293482 20.16835047 -124.3125 20.4609375 C-114.39849619 21.1856328 -104.49933318 21.19879661 -94.5625 21.1875 C-93.58176514 21.18689575 -92.60103027 21.1862915 -91.59057617 21.18566895 C-78.71232976 21.16423134 -65.85909077 20.97405367 -53 20.25 C-51.75806885 20.1883667 -50.5161377 20.1267334 -49.23657227 20.06323242 C-36.32155705 19.20768041 -26.20364087 15.94896539 -16 8 C-14.1974538 6.65324048 -12.38507731 5.3195249 -10.5625 4 C-9.75941406 3.401875 -8.95632813 2.80375 -8.12890625 2.1875 C-7.42636719 1.795625 -6.72382813 1.40375 -6 1 C-5.01 1.33 -4.02 1.66 -3 2 C-2.01 1.34 -1.02 0.68 0 0 Z " fill="#5A8B55" transform="translate(330,256)"/>
<path d="M0 0 C1.74506836 0.00966797 1.74506836 0.00966797 3.52539062 0.01953125 C4.74033203 0.03628906 5.95527344 0.05304688 7.20703125 0.0703125 C8.43357422 0.07933594 9.66011719 0.08835938 10.92382812 0.09765625 C13.9559242 0.12125233 16.98763063 0.15417409 20.01953125 0.1953125 C19.171875 2.1484375 19.171875 2.1484375 18.01953125 4.1953125 C15.22355839 5.05561184 12.94782051 5.1953125 10.01953125 5.1953125 C8.03705242 6.41443843 8.03705242 6.41443843 6 8.07421875 C5.22462891 8.66525391 4.44925781 9.25628906 3.65039062 9.86523438 C2.02689733 11.12276035 0.409627 12.38836331 -1.20117188 13.66210938 C-7.23512866 18.22875161 -7.23512866 18.22875161 -11.2890625 18.046875 C-12.17722656 17.76585937 -13.06539063 17.48484375 -13.98046875 17.1953125 C-17.83295016 17.65362494 -21.17470743 18.38955118 -23.98046875 21.1953125 C-28.11877864 20.89434451 -30.49893899 20.51633234 -33.98046875 18.1953125 C-34.31046875 18.8553125 -34.64046875 19.5153125 -34.98046875 20.1953125 C-35.64046875 19.5353125 -36.30046875 18.8753125 -36.98046875 18.1953125 C-37.97046875 18.8553125 -38.96046875 19.5153125 -39.98046875 20.1953125 C-39.32046875 22.1753125 -38.66046875 24.1553125 -37.98046875 26.1953125 C-38.64046875 26.1953125 -39.30046875 26.1953125 -39.98046875 26.1953125 C-39.98046875 25.5353125 -39.98046875 24.8753125 -39.98046875 24.1953125 C-40.84478516 24.05416016 -40.84478516 24.05416016 -41.7265625 23.91015625 C-44.49021799 23.0336416 -45.92380749 21.72181359 -48.04296875 19.7578125 C-50.31803269 17.66615103 -52.39554584 15.91859444 -54.98046875 14.1953125 C-55.31046875 13.3496875 -55.64046875 12.5040625 -55.98046875 11.6328125 C-56.31046875 10.8284375 -56.64046875 10.0240625 -56.98046875 9.1953125 C-57.97046875 8.8653125 -58.96046875 8.5353125 -59.98046875 8.1953125 C-61.16796875 4.6328125 -61.16796875 4.6328125 -61.98046875 1.1953125 C-59.41768176 1.14110549 -56.85605392 1.10154243 -54.29296875 1.0703125 C-53.57173828 1.05355469 -52.85050781 1.03679687 -52.10742188 1.01953125 C-42.03046588 0.92750425 -36.14474408 5.83626084 -29.1640625 12.55078125 C-26.90353658 14.59637867 -26.90353658 14.59637867 -22.98046875 14.1953125 C-22.98046875 13.5353125 -22.98046875 12.8753125 -22.98046875 12.1953125 C-20.74174637 10.44455471 -18.50390121 8.80630041 -16.16796875 7.1953125 C-15.52537109 6.74414062 -14.88277344 6.29296875 -14.22070312 5.828125 C-5.81991467 -0.05677966 -5.81991467 -0.05677966 0 0 Z " fill="#89CB8D" transform="translate(380.98046875,218.8046875)"/>
<path d="M0 0 C4.95 0 9.9 0 15 0 C14.13686006 5.17883966 13.15421654 8.25978607 10.9375 12.875 C10.63312012 13.51195801 10.32874023 14.14891602 10.01513672 14.80517578 C9.0205681 16.87538924 8.01234662 18.93842538 7 21 C6.63825684 21.73863281 6.27651367 22.47726563 5.90380859 23.23828125 C4.81600121 25.45310491 3.72251825 27.6649735 2.625 29.875 C2.27945068 30.57093262 1.93390137 31.26686523 1.57788086 31.98388672 C-0.87754383 36.87754383 -0.87754383 36.87754383 -2 38 C-4.53049402 38.07313567 -7.03304837 38.09247527 -9.5625 38.0625 C-10.62887695 38.05573242 -10.62887695 38.05573242 -11.71679688 38.04882812 C-13.47790013 38.03700864 -15.23896036 38.01907263 -17 38 C-16.39188958 34.26548169 -15.32076476 31.23169085 -13.671875 27.83203125 C-13.20136719 26.85556641 -12.73085937 25.87910156 -12.24609375 24.87304688 C-11.75238281 23.86306641 -11.25867188 22.85308594 -10.75 21.8125 C-10.27175781 20.82185547 -9.79351562 19.83121094 -9.30078125 18.81054688 C-6.25347629 12.51360912 -3.13992301 6.25119708 0 0 Z " fill="#E17636" transform="translate(220,233)"/>
<path d="M0 0 C1.97789479 0.74214813 3.93768938 1.53212153 5.89453125 2.328125 C5.56453125 3.318125 5.23453125 4.308125 4.89453125 5.328125 C5.88453125 5.658125 6.87453125 5.988125 7.89453125 6.328125 C2.93935474 9.88528933 -2.04559097 13.39560664 -7.05566406 16.875 C-8.64457121 18.00139059 -10.19291964 19.18510122 -11.72265625 20.390625 C-21.5017627 27.55480555 -36.44275697 26.46405404 -48.10546875 26.328125 C-48.43546875 25.668125 -48.76546875 25.008125 -49.10546875 24.328125 C-47.82671875 24.204375 -46.54796875 24.080625 -45.23046875 23.953125 C-41.75755939 23.63770101 -41.75755939 23.63770101 -39.10546875 21.328125 C-35.80720507 19.82891424 -32.5426199 18.47384205 -29.10546875 17.328125 C-28.83734375 16.668125 -28.56921875 16.008125 -28.29296875 15.328125 C-27.90109375 14.668125 -27.50921875 14.008125 -27.10546875 13.328125 C-25.11260938 12.95446387 -23.11183346 12.62071985 -21.10546875 12.328125 C-20.44546875 11.338125 -19.78546875 10.348125 -19.10546875 9.328125 C-17.77469886 8.98470051 -16.44114896 8.65192626 -15.10546875 8.328125 C-13.00108483 6.64461786 -11.93264401 5.03777943 -10.54296875 2.703125 C-7.97233642 -1.54400668 -4.50800431 -1.43854683 0 0 Z " fill="#46D054" transform="translate(344.10546875,251.671875)"/>
<path d="M0 0 C0.48210937 0.42152344 0.96421875 0.84304687 1.4609375 1.27734375 C2.40839844 2.09912109 2.40839844 2.09912109 3.375 2.9375 C4.00148438 3.48277344 4.62796875 4.02804688 5.2734375 4.58984375 C6.95632334 6.06958624 6.95632334 6.06958624 9 7 C9 7.66 9 8.32 9 9 C9.56203125 9.2475 10.1240625 9.495 10.703125 9.75 C13.39092569 11.21274867 15.46405482 12.96804873 17.75 15 C18.54921875 15.70125 19.3484375 16.4025 20.171875 17.125 C22 19 22 19 22 21 C18.1418084 22.9290958 13.3684909 22.18480401 9.125 22.1875 C7.61486328 22.20586914 7.61486328 22.20586914 6.07421875 22.22460938 C5.10355469 22.22654297 4.13289063 22.22847656 3.1328125 22.23046875 C2.24480957 22.23457764 1.35680664 22.23868652 0.44189453 22.24291992 C-2.14424617 21.98565038 -3.77442452 21.30628791 -6 20 C-6 19.01 -6 18.02 -6 17 C-7.97956942 15.30911778 -9.97945196 13.64169528 -12 12 C-12 11.34 -12 10.68 -12 10 C-12.61875 9.7525 -13.2375 9.505 -13.875 9.25 C-16.35068687 7.79371361 -16.95125002 6.62187494 -18 4 C-15.88074396 1.88074396 -11.3803907 2.58168983 -8.4375 2.4375 C-7.63119141 2.39431641 -6.82488281 2.35113281 -5.99414062 2.30664062 C-3.99631195 2.20024738 -1.9981793 2.09959112 0 2 C0 1.34 0 0.68 0 0 Z " fill="#51B560" transform="translate(372,250)"/>
<path d="M0 0 C0 0.33 0 0.66 0 1 C6.27 1.33 12.54 1.66 19 2 C19 2.33 19 2.66 19 3 C18.26813477 3.03963867 17.53626953 3.07927734 16.78222656 3.12011719 C0.34315373 4.0450386 -15.73605933 5.59273642 -32.015625 8.09765625 C-34.01014959 8.40020344 -36.004913 8.70118397 -38 9 C-38.7209082 9.11037598 -39.44181641 9.22075195 -40.18457031 9.33447266 C-48.1495716 10.3955806 -56.2288408 10.24023139 -64.25 10.25 C-65.44505157 10.25300613 -65.44505157 10.25300613 -66.66424561 10.256073 C-97.44991868 10.27504066 -97.44991868 10.27504066 -106 6 C-106 5.34 -106 4.68 -106 4 C-105.35675781 4.06058594 -104.71351563 4.12117187 -104.05078125 4.18359375 C-102.15114423 4.35973698 -100.25112777 4.53181698 -98.35083008 4.70068359 C-96.27539762 4.88607377 -94.20047233 5.07737145 -92.12646484 5.27807617 C-83.16627356 6.0750763 -74.29241652 6.10751916 -65.3125 5.875 C-64.54341309 5.85688263 -63.77432617 5.83876526 -62.98193359 5.82009888 C-49.58142509 5.47025254 -36.52440043 3.98590602 -23.31762695 1.72802734 C-15.47007044 0.39872904 -7.96864009 -0.32828552 0 0 Z " fill="#879485" transform="translate(250,205)"/>
<path d="M0 0 C0.33 0.66 0.66 1.32 1 2 C0.67 2.66 0.34 3.32 0 4 C4.10223585 5.01540112 4.10223585 5.01540112 8 4 C8 4.66 8 5.32 8 6 C8.99 5.34 9.98 4.68 11 4 C11.99 4.33 12.98 4.66 14 5 C13.34 6.65 12.68 8.3 12 10 C15.96 10 19.92 10 24 10 C22.85937082 14.56251673 21.6186021 17.89257589 18 21 C14.61435281 21.95572835 11.43097303 21.84617974 7.9375 21.6875 C7.03966797 21.68943359 6.14183594 21.69136719 5.21679688 21.69335938 C1.16586796 21.60601593 -1.25469822 21.52616081 -4.6171875 19.15234375 C-6.25061127 16.60992427 -6.29774873 15.02371455 -5.6953125 12.08203125 C-4.2772551 7.83582565 -2.13799557 3.92097342 0 0 Z " fill="#DCDCDC" transform="translate(275,250)"/>
<path d="M0 0 C0.66 0.66 1.32 1.32 2 2 C2.99 1.34 3.98 0.68 5 0 C5 0.66 5 1.32 5 2 C5.7425 1.649375 6.485 1.29875 7.25 0.9375 C10.20382917 -0.06948722 11.12877314 0.1089296 14 1 C14.66 0.67 15.32 0.34 16 0 C14.02147958 6.39657573 11.04309796 12.04611269 8 18 C3.05 18 -1.9 18 -7 18 C-7 12.60607942 -6.09297444 10.77150838 -3.5 6.1875 C-3.16613281 5.59001953 -2.83226562 4.99253906 -2.48828125 4.37695312 C-1.66827367 2.91265388 -0.83540688 1.45556863 0 0 Z " fill="#D6D5D6" transform="translate(167,253)"/>
<path d="M0 0 C0.33 0.66 0.66 1.32 1 2 C1.66 2 2.32 2 3 2 C3.680625 3.175625 3.680625 3.175625 4.375 4.375 C5.72367736 7.06695873 5.72367736 7.06695873 7.875 7.9375 C11.12501188 9.56250594 12.77273964 12.15405621 15 15 C14 16 14 16 10.1875 16.1875 C6.86307866 16.16379646 4.93632899 15.57303339 2 14 C-0.19747131 14.29805007 -0.19747131 14.29805007 -2 15 C-2.33 13.68 -2.66 12.36 -3 11 C-4.0828125 10.9071875 -4.0828125 10.9071875 -5.1875 10.8125 C-8.88556786 9.74416929 -10.44412779 7.82491139 -13 5 C-13.598125 4.401875 -14.19625 3.80375 -14.8125 3.1875 C-15.204375 2.795625 -15.59625 2.40375 -16 2 C-14.00383446 0.00383446 -10.18298037 0.59016573 -7.4375 0.4375 C-6.37112305 0.37272461 -6.37112305 0.37272461 -5.28320312 0.30664062 C-3.52238088 0.20028223 -1.7612168 0.09961154 0 0 Z " fill="#39BC51" transform="translate(370,252)"/>
<path d="M0 0 C2.62697064 -0.22137393 5.00893964 -0.28162025 7.625 -0.1875 C8.33140625 -0.17396484 9.0378125 -0.16042969 9.765625 -0.14648438 C11.51074128 -0.1111104 13.25546608 -0.05730221 15 0 C14.42692413 4.95137553 12.83130248 9.05059862 10.6875 13.5 C10.39166016 14.13808594 10.09582031 14.77617187 9.79101562 15.43359375 C7.85303501 19.52721155 5.86038892 23.46371578 3 27 C0.640625 27.5859375 0.640625 27.5859375 -1.75 27.375 C-2.54921875 27.32085937 -3.3484375 27.26671875 -4.171875 27.2109375 C-4.77515625 27.14132812 -5.3784375 27.07171875 -6 27 C-6 26.34 -6 25.68 -6 25 C-5.46890625 24.78085937 -4.9378125 24.56171875 -4.390625 24.3359375 C0.62236131 22.08558233 3.49467005 20.11504864 6 15 C6.33709062 12.24741188 6.33709062 12.24741188 6 10 C3.36 9.34 0.72 8.68 -2 8 C-2.20086443 4.28400809 -2.1519437 3.22791555 0 0 Z " fill="#EEEAE5" transform="translate(220,233)"/>
<path d="M0 0 C2.56278699 -0.05420701 5.12441483 -0.09377007 7.6875 -0.125 C8.40873047 -0.14175781 9.12996094 -0.15851563 9.87304688 -0.17578125 C14.06590538 -0.2140722 17.242263 0.11772158 21 2 C21.9075 2.45375 22.815 2.9075 23.75 3.375 C26.34300082 5.24772281 26.42961539 5.9868813 27 9 C24.93769732 9.1690907 22.8751477 9.33517133 20.8125 9.5 C19.66394531 9.5928125 18.51539063 9.685625 17.33203125 9.78125 C14 10 14 10 11.19921875 9.90625 C8.78843902 9.76066136 8.78843902 9.76066136 7 12 C6.731875 11.360625 6.46375 10.72125 6.1875 10.0625 C5.11332248 7.66868314 5.11332248 7.66868314 2 7 C0.8125 3.4375 0.8125 3.4375 0 0 Z " fill="#D8EFD5" transform="translate(319,220)"/>
<path d="M0 0 C-1.68942185 4.50512494 -3.82168139 8.7159734 -6 13 C-10.62 13 -15.24 13 -20 13 C-21 10 -21 10 -20.2578125 7.9921875 C-19.88398438 7.29351562 -19.51015625 6.59484375 -19.125 5.875 C-18.75632813 5.17117187 -18.38765625 4.46734375 -18.0078125 3.7421875 C-17 2 -17 2 -16 1 C-10.70362275 0.19207805 -5.35452334 -0.14090851 0 0 Z " fill="#E3CEBE" transform="translate(243,219)"/>
<path d="M0 0 C1.97789479 0.74214813 3.93768938 1.53212153 5.89453125 2.328125 C5.56453125 3.318125 5.23453125 4.308125 4.89453125 5.328125 C5.88453125 5.658125 6.87453125 5.988125 7.89453125 6.328125 C5.12801969 8.31338834 2.35561607 10.29025861 -0.41796875 12.265625 C-1.20365234 12.82958984 -1.98933594 13.39355469 -2.79882812 13.97460938 C-3.55615234 14.51279297 -4.31347656 15.05097656 -5.09375 15.60546875 C-5.79024658 16.10296631 -6.48674316 16.60046387 -7.2043457 17.11303711 C-9.10546875 18.328125 -9.10546875 18.328125 -12.10546875 19.328125 C-13.09546875 18.998125 -14.08546875 18.668125 -15.10546875 18.328125 C-15.10546875 17.338125 -15.10546875 16.348125 -15.10546875 15.328125 C-13.78546875 15.328125 -12.46546875 15.328125 -11.10546875 15.328125 C-11.10546875 14.668125 -11.10546875 14.008125 -11.10546875 13.328125 C-9.78546875 13.328125 -8.46546875 13.328125 -7.10546875 13.328125 C-7.76546875 10.358125 -8.42546875 7.388125 -9.10546875 4.328125 C-9.76546875 4.328125 -10.42546875 4.328125 -11.10546875 4.328125 C-8.69743439 -1.00395108 -5.63040453 -1.79671536 0 0 Z " fill="#39B74F" transform="translate(344.10546875,251.671875)"/>
<path d="M0 0 C0.33 0.66 0.66 1.32 1 2 C5.95 1.67 10.9 1.34 16 1 C13.1957672 9.41269841 13.1957672 9.41269841 10 13 C7.10405649 13.46211865 5.09502976 13.584747 2.25 13.375 C1.55261719 13.34792969 0.85523438 13.32085937 0.13671875 13.29296875 C-1.57685705 13.22254783 -3.28883302 13.11492913 -5 13 C-4.42655667 9.55330375 -3.56138422 6.77811835 -1.9375 3.6875 C-1.57527344 2.99011719 -1.21304688 2.29273438 -0.83984375 1.57421875 C-0.56269531 1.05472656 -0.28554687 0.53523438 0 0 Z " fill="#C66832" transform="translate(208,258)"/>
<path d="M0 0 C17.28818141 1.34162383 34.56561962 1.20695778 51.89501953 1.07592773 C52.96794754 1.06931122 54.04087555 1.0626947 55.14631653 1.05587769 C57.15440433 1.04255473 59.16246909 1.0244193 61.17045593 1.00027466 C67.62710595 0.95487338 73.95626569 1.36902268 80.375 2.0625 C80.375 2.3925 80.375 2.7225 80.375 3.0625 C68.63876759 3.10906879 56.90255756 3.14449297 45.16625118 3.16612434 C39.71521146 3.17651211 34.26423548 3.19057867 28.81323242 3.21337891 C23.5417831 3.23528733 18.27039465 3.24710616 12.99890327 3.25225449 C10.9989177 3.25591821 8.99893504 3.26307137 6.99897575 3.27396011 C-4.39780255 3.33347904 -15.3717341 2.98382749 -26.625 1.0625 C-26.625 0.7325 -26.625 0.4025 -26.625 0.0625 C-17.57942874 -0.9003313 -9.04727198 -0.76994241 0 0 Z " fill="#A4CCA2" transform="translate(210.625,276.9375)"/>
<path d="M0 0 C3 3.75 3 3.75 3 6 C7.81122847 4.47444034 7.81122847 4.47444034 11 1 C11.99 1 12.98 1 14 1 C14 1.66 14 2.32 14 3 C14.99 3 15.98 3 17 3 C16 6 16 6 13.5859375 7.61328125 C8.93193626 9.41303119 4.57252638 9.80772509 -0.375 10.1875 C-1.2825 10.26935547 -2.19 10.35121094 -3.125 10.43554688 C-8.43546336 10.89083876 -13.67116337 11.08111812 -19 11 C-19.33 10.34 -19.66 9.68 -20 9 C-18.72125 8.87625 -17.4425 8.7525 -16.125 8.625 C-12.65209064 8.30957601 -12.65209064 8.30957601 -10 6 C-6.70173632 4.50078924 -3.43715115 3.14571705 0 2 C0 1.34 0 0.68 0 0 Z " fill="#61EC60" transform="translate(315,267)"/>
<path d="M0 0 C-6.34808459 6.42352872 -10.420958 10.3848253 -19.66796875 11.0546875 C-21.94140886 11.001374 -23.82794131 10.64912099 -26 10 C-24.5471065 5.6413195 -21.89790931 4.02021051 -18.1875 1.453125 C-12.31504178 -1.22402507 -6.33654045 -0.5322694 0 0 Z " fill="#B9E2B8" transform="translate(393,221)"/>
<path d="M0 0 C0.99 0.33 1.98 0.66 3 1 C3 4 3 4 1.65478516 5.3503418 C1.03909668 5.79547119 0.4234082 6.24060059 -0.2109375 6.69921875 C-0.87867188 7.18583984 -1.54640625 7.67246094 -2.234375 8.17382812 C-3.29398437 8.9230957 -3.29398437 8.9230957 -4.375 9.6875 C-5.07367188 10.19861328 -5.77234375 10.70972656 -6.4921875 11.23632812 C-11.71811373 15 -11.71811373 15 -14 15 C-14 15.66 -14 16.32 -14 17 C-15.6796875 18.5078125 -15.6796875 18.5078125 -17.875 20.125 C-18.59429687 20.66382813 -19.31359375 21.20265625 -20.0546875 21.7578125 C-22 23 -22 23 -24 23 C-24.33 23.66 -24.66 24.32 -25 25 C-25 24.34 -25 23.68 -25 23 C-25.99 23 -26.98 23 -28 23 C-26.8362632 19.50878959 -25.94674297 18.95719458 -23.02734375 16.85546875 C-22.20943359 16.26056641 -21.39152344 15.66566406 -20.54882812 15.05273438 C-19.68708984 14.43720703 -18.82535156 13.82167969 -17.9375 13.1875 C-16.2589035 11.97294793 -14.58051611 10.7581068 -12.90234375 9.54296875 C-11.67040283 8.6619751 -11.67040283 8.6619751 -10.41357422 7.76318359 C-7.43396503 5.5864956 -4.55392185 3.29299511 -1.69360352 0.9621582 C-1.13471436 0.644646 -0.5758252 0.32713379 0 0 Z " fill="#769F77" transform="translate(392,222)"/>
<path d="M0 0 C4.56704557 2.22180595 5.90281403 4.46122215 8 9 C5.27070664 8.52154615 2.54156349 8.04226177 -0.1875 7.5625 C-0.95642578 7.42779297 -1.72535156 7.29308594 -2.51757812 7.15429688 C-6.35465574 6.47910296 -10.18399568 5.78767223 -14 5 C-12.92173635 6.27513763 -11.83714481 7.54492569 -10.75 8.8125 C-10.14671875 9.52019531 -9.5434375 10.22789062 -8.921875 10.95703125 C-7.06082782 13.05997556 -7.06082782 13.05997556 -4.765625 14.63671875 C-3.89164062 15.31154297 -3.89164062 15.31154297 -3 16 C-3 16.66 -3 17.32 -3 18 C-3.66 18 -4.32 18 -5 18 C-5 17.34 -5 16.68 -5 16 C-5.57621094 15.90460938 -6.15242188 15.80921875 -6.74609375 15.7109375 C-9.49370832 14.84427225 -10.94182079 13.56180529 -13.0625 11.625 C-13.73410156 11.01914063 -14.40570313 10.41328125 -15.09765625 9.7890625 C-16.76426508 8.22169732 -18.39493678 6.6300642 -20 5 C-19.67 4.01 -19.34 3.02 -19 2 C-12.73 2 -6.46 2 0 2 C0 1.34 0 0.68 0 0 Z " fill="#AEDEAD" transform="translate(346,227)"/>
<path d="M0 0 C4.02103957 0.01950476 8.04026603 0.07147191 12.06054688 0.15258789 C13.42598665 0.17567894 14.79160229 0.1901427 16.15722656 0.19555664 C28.97640306 0.25637755 28.97640306 0.25637755 32.9296875 3.55078125 C33.61289062 4.35902344 34.29609375 5.16726562 35 6 C33.68 6.33 32.36 6.66 31 7 C30.67 6.34 30.34 5.68 30 5 C24.06 4.67 18.12 4.34 12 4 C14.01151263 10.77489892 14.01151263 10.77489892 17 12 C17.33 11.01 17.66 10.02 18 9 C18.33 11.31 18.66 13.62 19 16 C16.96166576 14.7260411 14.96147874 13.38938077 13 12 C13 11.34 13 10.68 13 10 C12.38125 9.731875 11.7625 9.46375 11.125 9.1875 C9 8 9 8 7 5 C5.05167065 3.99831469 5.05167065 3.99831469 2.875 3.3125 C1.78832031 2.93544922 1.78832031 2.93544922 0.6796875 2.55078125 C0.12539063 2.36902344 -0.42890625 2.18726563 -1 2 C-0.67 1.34 -0.34 0.68 0 0 Z " fill="#9FB399" transform="translate(307,216)"/>
<path d="M0 0 C0 0.33 0 0.66 0 1 C6.27 1.33 12.54 1.66 19 2 C19 2.33 19 2.66 19 3 C18.18958252 3.0501123 17.37916504 3.10022461 16.54418945 3.15185547 C13.47046535 3.34476977 10.39714001 3.54302386 7.32397461 3.74462891 C5.36662752 3.8714918 3.40890183 3.9924704 1.45117188 4.11328125 C-5.85000747 4.59631093 -12.99533283 5.34971971 -20.20629883 6.60205078 C-22.85019065 6.97866038 -25.33425876 7.07258282 -28 7 C-27.01 6.34 -26.02 5.68 -25 5 C-27.97 4.505 -27.97 4.505 -31 4 C-31 3.67 -31 3.34 -31 3 C-20.62718197 1.17716169 -10.57926542 -0.57014005 0 0 Z " fill="#5E7B58" transform="translate(250,205)"/>
<path d="M0 0 C1.216875 -0.020625 2.43375 -0.04125 3.6875 -0.0625 C4.71423828 -0.07990234 4.71423828 -0.07990234 5.76171875 -0.09765625 C8 0 8 0 10.28344727 0.48852539 C13.12709598 1.02392973 15.81209659 1.19123454 18.703125 1.28125 C19.7653125 1.31863281 20.8275 1.35601562 21.921875 1.39453125 C24.15623438 1.46533841 26.3906097 1.53564405 28.625 1.60546875 C30.21054687 1.66154297 30.21054687 1.66154297 31.828125 1.71875 C32.7965332 1.74904297 33.76494141 1.77933594 34.76269531 1.81054688 C37 2 37 2 38 3 C40.18292774 3.23481693 42.37203174 3.41363323 44.5625 3.5625 C46.35880859 3.68818359 46.35880859 3.68818359 48.19140625 3.81640625 C49.11824219 3.87699219 50.04507813 3.93757813 51 4 C51 4.33 51 4.66 51 5 C44.74149223 5.91713185 38.63471726 6.19297189 32.3125 6.1875 C30.8581958 6.1862915 30.8581958 6.1862915 29.37451172 6.18505859 C19.25372124 6.09890264 9.76776198 4.68134642 0 2 C0 1.34 0 0.68 0 0 Z " fill="#858F89" transform="translate(233,289)"/>
<path d="M0 0 C-0.8359375 1.953125 -0.8359375 1.953125 -2 4 C-4.625 4.75 -4.625 4.75 -7 5 C-7.495 4.01 -7.495 4.01 -8 3 C-16.24348543 2.19901356 -22.25974959 1.67530167 -29.125 6.8125 C-30.75308148 8.2047379 -32.37826044 9.60037988 -34 11 C-35.64589018 12.0338391 -37.3070891 13.04510186 -39 14 C-39 13.34 -39 12.68 -39 12 C-39.66 11.67 -40.32 11.34 -41 11 C-28.68205117 -1.52121531 -16.9211782 -1.37468951 0 0 Z " fill="#B4BBB4" transform="translate(401,219)"/>
<path d="M0 0 C0.99 0.33 1.98 0.66 3 1 C2.01 1.33 1.02 1.66 0 2 C-0.33 2.99 -0.66 3.98 -1 5 C-2.33076989 5.34342449 -3.66431979 5.67619874 -5 6 C-5.99 7.485 -5.99 7.485 -7 9 C-8.670625 9.4640625 -8.670625 9.4640625 -10.375 9.9375 C-14.20344287 11.05962981 -15.43769084 12.07164667 -18 15 C-21.08888522 17.05925681 -21.70935927 17.2390374 -25.1875 17.125 C-26.445625 17.08375 -27.70375 17.0425 -29 17 C-26.350696 14.98035121 -23.65910291 13.07867276 -20.875 11.25 C-18.30226982 9.55898364 -15.78085272 7.83943978 -13.296875 6.01953125 C-12.41515625 5.37371094 -11.5334375 4.72789062 -10.625 4.0625 C-9.81289063 3.45535156 -9.00078125 2.84820312 -8.1640625 2.22265625 C-7.44992187 1.81917969 -6.73578125 1.41570312 -6 1 C-5.01 1.33 -4.02 1.66 -3 2 C-2.01 1.34 -1.02 0.68 0 0 Z " fill="#62BC63" transform="translate(330,256)"/>
<path d="M0 0 C25.25423367 -0.6630639 25.25423367 -0.6630639 35 3 C35.66 3.66 36.32 4.32 37 5 C35.43378906 4.90912109 35.43378906 4.90912109 33.8359375 4.81640625 C21.56138203 4.11439773 9.28275885 3.53786792 -3 3 C-2.01 2.67 -1.02 2.34 0 2 C0 1.34 0 0.68 0 0 Z " fill="#96CA8A" transform="translate(250,204)"/>
<path d="M0 0 C25.68599446 -0.76295033 25.68599446 -0.76295033 33 6 C33 6.99 33 7.98 33 9 C33.99 9.33 34.98 9.66 36 10 C34.68 10.33 33.36 10.66 32 11 C31.34 9.68 30.68 8.36 30 7 C29.67 8.65 29.34 10.3 29 12 C33.29 12 37.58 12 42 12 C42 12.33 42 12.66 42 13 C39.9211618 13.30341425 37.836427 13.5666325 35.75 13.8125 C34.58984375 13.96332031 33.4296875 14.11414063 32.234375 14.26953125 C29 14 29 14 26.72265625 11.58984375 C26.15417969 10.73519531 25.58570313 9.88054687 25 9 C21.178745 6.93445675 17.28280752 6.50385971 13 6 C13 5.67 13 5.34 13 5 C17.62 5 22.24 5 27 5 C17.86133086 2.66456233 9.40530165 1.40892616 0 1 C0 0.67 0 0.34 0 0 Z " fill="#6C8D68" transform="translate(258,203)"/>
<path d="M0 0 C0.64324219 0.06058594 1.28648437 0.12117187 1.94921875 0.18359375 C7.15097568 0.66592499 12.3529405 1.11021111 17.5625 1.5 C23.0517588 1.91366424 28.52604049 2.41924132 34 3 C34 3.33 34 3.66 34 4 C42.25 4.33 50.5 4.66 59 5 C59 5.33 59 5.66 59 6 C9.58347265 6.79173633 9.58347265 6.79173633 0 2 C0 1.34 0 0.68 0 0 Z " fill="#737B78" transform="translate(144,209)"/>
<path d="M0 0 C0.33 0.66 0.66 1.32 1 2 C5.95 2 10.9 2 16 2 C15.01 3.98 14.02 5.96 13 8 C8.38 8 3.76 8 -1 8 C-2.2077558 4.37673261 -1.54311128 3.35853631 0 0 Z " fill="#EC6B25" transform="translate(224,224)"/>
<path d="M0 0 C-1.03640625 0.82564453 -1.03640625 0.82564453 -2.09375 1.66796875 C-4.12945129 3.30145486 -6.14645853 4.94884628 -8.15625 6.61328125 C-9.27029283 7.51368999 -10.38488357 8.41342121 -11.5 9.3125 C-12.33337891 10.01342773 -12.33337891 10.01342773 -13.18359375 10.72851562 C-17.34927176 14.04635564 -17.34927176 14.04635564 -20.90625 13.79296875 C-21.5971875 13.53128906 -22.288125 13.26960938 -23 13 C-23 12.01 -23 11.02 -23 10 C-21.68 10 -20.36 10 -19 10 C-19 9.34 -19 8.68 -19 8 C-17.68 8 -16.36 8 -15 8 C-14.67 7.01 -14.34 6.02 -14 5 C-13.34 5 -12.68 5 -12 5 C-11.67 4.01 -11.34 3.02 -11 2 C-7.09668778 -1.12264978 -4.7776158 -1.22218079 0 0 Z " fill="#5AB060" transform="translate(352,257)"/>
<path d="M0 0 C-0.125 1.75 -0.125 1.75 -1 4 C-2.96147874 5.38938077 -4.96166576 6.7260411 -7 8 C-7.33 8.66 -7.66 9.32 -8 10 C-7.01 10 -6.02 10 -5 10 C-5 10.66 -5 11.32 -5 12 C-3.68 12.33 -2.36 12.66 -1 13 C-0.67 14.32 -0.34 15.64 0 17 C-2.97 16.01 -5.94 15.02 -9 14 C-10 7.25 -10 7.25 -10 5 C-10.99 4.67 -11.98 4.34 -13 4 C-13 3.34 -13 2.68 -13 2 C-4.57142857 -0.28571429 -4.57142857 -0.28571429 0 0 Z " fill="#7DCC85" transform="translate(372,235)"/>
<path d="M0 0 C0 0.66 0 1.32 0 2 C-7.7711927 2.04632557 -15.54235309 2.08187029 -23.31364918 2.10362434 C-26.92212105 2.11406482 -30.53049849 2.12822873 -34.13891602 2.15087891 C-37.62076942 2.17259804 -41.10253195 2.18456664 -44.58444786 2.18975449 C-46.56038283 2.19525227 -48.53628122 2.21086668 -50.51216125 2.22659302 C-51.71317978 2.22674408 -52.9141983 2.22689514 -54.15161133 2.22705078 C-55.21084305 2.231492 -56.27007477 2.23593323 -57.36140442 2.24050903 C-60 2 -60 2 -63 0 C-61.63403687 0.00785522 -61.63403687 0.00785522 -60.24047852 0.01586914 C-38.20911314 0.18659805 -38.20911314 0.18659805 -16.20703125 -0.7734375 C-10.69757466 -1.16265611 -5.36565403 -1.49243357 0 0 Z " fill="#70986C" transform="translate(289,277)"/>
<path d="M0 0 C2.33333333 0.33333333 4.66666667 0.66666667 7 1 C9.67412698 1.08385764 12.32352708 1.04695567 15 1 C12.24526918 4.06081203 10.00425951 5.89882863 6 7 C3.9375 6.5625 3.9375 6.5625 2 6 C0.66431979 6.32380126 -0.66923011 6.65657551 -2 7 C-2.99 6.67 -3.98 6.34 -5 6 C-5.33 5.01 -5.66 4.02 -6 3 C-5.67 2.34 -5.34 1.68 -5 1 C-3.68 1 -2.36 1 -1 1 C-0.67 0.67 -0.34 0.34 0 0 Z " fill="#92D697" transform="translate(365,230)"/>
<path d="M0 0 C1.38294718 0.01329757 2.76582404 0.03715018 4.1484375 0.0703125 C4.85484375 0.07933594 5.56125 0.08835938 6.2890625 0.09765625 C8.03399848 0.12123647 9.77876045 0.15710789 11.5234375 0.1953125 C7.8253407 4.10544183 5.98826955 5.86073095 0.5234375 6.1953125 C-1.47621965 6.23234319 -3.47712915 6.24291806 -5.4765625 6.1953125 C-5.4765625 1.09569646 -5.1094967 0.28705038 0 0 Z " fill="#DFF1DD" transform="translate(381.4765625,220.8046875)"/>
<path d="M0 0 C0.99 0.33 1.98 0.66 3 1 C-0.48914076 13.50984613 -0.48914076 13.50984613 -5 17 C-8.08709587 17.57072361 -10.90089446 17.42536743 -14 17 C-14 16.34 -14 15.68 -14 15 C-13.48050781 14.79246094 -12.96101562 14.58492188 -12.42578125 14.37109375 C-7.02982569 11.98729823 -3.7091395 9.30200691 -1 4 C-0.62519994 2.67772401 -0.28030831 1.34547989 0 0 Z " fill="#BAB0A6" transform="translate(228,243)"/>
<path d="M0 0 C4.25742137 0.47304682 6.25705098 2.8863822 9 6 C9.33 6.99 9.66 7.98 10 9 C7.49502996 10.25248502 5.79146726 10.11374406 2.9921875 10.09765625 C2.00605469 10.09443359 1.01992188 10.09121094 0.00390625 10.08789062 C-1.02863281 10.07951172 -2.06117188 10.07113281 -3.125 10.0625 C-4.68541016 10.05573242 -4.68541016 10.05573242 -6.27734375 10.04882812 C-8.85161962 10.03701952 -11.42578146 10.02055075 -14 10 C-14 9.34 -14 8.68 -14 8 C-12.87980469 7.93941406 -11.75960938 7.87882812 -10.60546875 7.81640625 C-9.13280016 7.73198576 -7.66014456 7.64733851 -6.1875 7.5625 C-5.44951172 7.52318359 -4.71152344 7.48386719 -3.95117188 7.44335938 C-0.76928658 7.25618965 1.96162378 7.01279207 5 6 C3.35 4.02 1.7 2.04 0 0 Z " fill="#5E7C5D" transform="translate(384,262)"/>
<path d="M0 0 C0.33 0.66 0.66 1.32 1 2 C1.928125 1.95875 2.85625 1.9175 3.8125 1.875 C7 2 7 2 10 4 C9.38461538 10.52307692 9.38461538 10.52307692 7.4375 12.9375 C6.963125 13.288125 6.48875 13.63875 6 14 C6 12.68 6 11.36 6 10 C6.66 10 7.32 10 8 10 C8 8.68 8 7.36 8 6 C5.69 6 3.38 6 1 6 C1 6.66 1 7.32 1 8 C-0.65 8.66 -2.3 9.32 -4 10 C-3.52449439 8.51965236 -3.04448784 7.04074979 -2.5625 5.5625 C-2.29566406 4.73878906 -2.02882812 3.91507813 -1.75390625 3.06640625 C-1 1 -1 1 0 0 Z " fill="#DA7135" transform="translate(217,239)"/>
<path d="M0 0 C2.56278699 -0.05420701 5.12441483 -0.09377007 7.6875 -0.125 C8.40873047 -0.14175781 9.12996094 -0.15851563 9.87304688 -0.17578125 C14.04876781 -0.21391569 17.2494138 0.1210081 21 2 C19.96875 3.51171875 19.96875 3.51171875 18 5 C15.38189132 5.10908786 13.08420268 5.0561534 10.5 4.8125 C9.82324219 4.76802734 9.14648438 4.72355469 8.44921875 4.67773438 C4.87326857 4.39208155 3.0420407 4.02802713 0 2 C0 1.34 0 0.68 0 0 Z " fill="#EFF9EC" transform="translate(319,220)"/>
<path d="M0 0 C6.27 0 12.54 0 19 0 C19 3.56172735 18.25329283 4.36534757 16.125 7.125 C15.59132813 7.82882813 15.05765625 8.53265625 14.5078125 9.2578125 C13 11 13 11 11 12 C9.29297265 12.06996014 7.58331997 12.08440154 5.875 12.0625 C4.96492188 12.05347656 4.05484375 12.04445312 3.1171875 12.03515625 C2.41851562 12.02355469 1.71984375 12.01195312 1 12 C1 11.67 1 11.34 1 11 C3.97 11 6.94 11 10 11 C10.309375 10.05125 10.61875 9.1025 10.9375 8.125 C12 5 12 5 13 3 C13.66 3 14.32 3 15 3 C15 2.34 15 1.68 15 1 C10.05 1 5.1 1 0 1 C0 0.67 0 0.34 0 0 Z " fill="#A4A6A8" transform="translate(263,219)"/>
<path d="M0 0 C0 0.66 0 1.32 0 2 C-0.99 2.33 -1.98 2.66 -3 3 C-1.68 3.66 -0.36 4.32 1 5 C-1.76565382 5.92188461 -3.38283702 6.11785222 -6.23046875 6.09765625 C-7.03291016 6.09443359 -7.83535156 6.09121094 -8.66210938 6.08789062 C-9.49548828 6.07951172 -10.32886719 6.07113281 -11.1875 6.0625 C-12.03248047 6.05798828 -12.87746094 6.05347656 -13.74804688 6.04882812 C-15.83206155 6.03705403 -17.91603977 6.0191189 -20 6 C-20.33 5.34 -20.66 4.68 -21 4 C-19.87980469 3.79503906 -18.75960938 3.59007812 -17.60546875 3.37890625 C-16.13279176 3.10688311 -14.66013664 2.83474151 -13.1875 2.5625 C-12.44951172 2.42779297 -11.71152344 2.29308594 -10.95117188 2.15429688 C-7.33830014 1.4840356 -3.62969561 0 0 0 Z " fill="#75996D" transform="translate(291,287)"/>
<path d="M0 0 C0.33 0.99 0.66 1.98 1 3 C4.63 3 8.26 3 12 3 C12.33 3.66 12.66 4.32 13 5 C10.00051609 5.33865141 7.00055074 5.67105073 4 6 C2.74123047 6.14308594 2.74123047 6.14308594 1.45703125 6.2890625 C-3.73140945 6.85214909 -8.78126961 7.09664316 -14 7 C-14.33 6.34 -14.66 5.68 -15 5 C-13.72125 4.87625 -12.4425 4.7525 -11.125 4.625 C-7.65209064 4.30957601 -7.65209064 4.30957601 -5 2 C-3.35008418 1.29289322 -1.68437744 0.62056011 0 0 Z " fill="#76EA6F" transform="translate(310,271)"/>
<path d="M0 0 C5.625 -0.25 5.625 -0.25 9 2 C9 3.65 9 5.3 9 7 C5.04 7 1.08 7 -3 7 C-2.34 6.34 -1.68 5.68 -1 5 C-0.35232207 2.42938689 -0.35232207 2.42938689 0 0 Z " fill="#FA6F14" transform="translate(210,261)"/>
<path d="M0 0 C2 1.3125 2 1.3125 4 3 C4 3.99 4 4.98 4 6 C1.93769732 6.1690907 -0.1248523 6.33517133 -2.1875 6.5 C-3.91033203 6.63921875 -3.91033203 6.63921875 -5.66796875 6.78125 C-9 7 -9 7 -11.80078125 6.90625 C-14.21156098 6.76066136 -14.21156098 6.76066136 -16 9 C-16.33 7.02 -16.66 5.04 -17 3 C-16.01 3.33 -15.02 3.66 -14 4 C-9.14191433 4.23506866 -5.37465682 4.38617645 -1 2 C-0.67 1.34 -0.34 0.68 0 0 Z " fill="#C4E1BE" transform="translate(342,223)"/>
<path d="M0 0 C6.59517116 2.449635 11.9149109 8.7840464 15.1875 14.8125 C10.74998086 14.37409449 8.17352633 11.31879169 5.125 8.375 C0.87682768 4.3315693 0.87682768 4.3315693 -3.8125 0.8125 C-1.8125 -0.1875 -1.8125 -0.1875 0 0 Z " fill="#8BA582" transform="translate(352.8125,255.1875)"/>
<path d="M0 0 C1.11362915 0.03951782 1.11362915 0.03951782 2.24975586 0.07983398 C4.35546875 0.203125 4.35546875 0.203125 7.8125 0.75 C8.4725 1.74 9.1325 2.73 9.8125 3.75 C-1.07640097 3.98990235 -11.42577939 3.50445809 -22.1875 1.75 C-22.1875 1.42 -22.1875 1.09 -22.1875 0.75 C-14.74085913 -0.09179419 -7.47812125 -0.35625282 0 0 Z " fill="#677475" transform="translate(206.1875,276.25)"/>
<path d="M0 0 C4.04128452 -0.1457733 8.08188906 -0.23423181 12.125 -0.3125 C13.83816406 -0.3753418 13.83816406 -0.3753418 15.5859375 -0.43945312 C25.08816964 -0.57756696 25.08816964 -0.57756696 28.8046875 2.51953125 C29.52914063 3.33808594 30.25359375 4.15664062 31 5 C29.68 5.33 28.36 5.66 27 6 C26.67 5.34 26.34 4.68 26 4 C20.06 3.67 14.12 3.34 8 3 C8 2.67 8 2.34 8 2 C5.36 1.67 2.72 1.34 0 1 C0 0.67 0 0.34 0 0 Z " fill="#B3C3AD" transform="translate(311,217)"/>
<path d="M0 0 C0.99 0.33 1.98 0.66 3 1 C2.01 1.33 1.02 1.66 0 2 C-0.33 2.99 -0.66 3.98 -1 5 C-2.33076989 5.34342449 -3.66431979 5.67619874 -5 6 C-5.99 7.485 -5.99 7.485 -7 9 C-9.86724686 8.42655063 -10.8614515 8.1385485 -13 6 C-11.90554162 5.13342884 -10.79902219 4.28207276 -9.6875 3.4375 C-9.07261719 2.96183594 -8.45773437 2.48617188 -7.82421875 1.99609375 C-7.22222656 1.66738281 -6.62023437 1.33867187 -6 1 C-5.01 1.33 -4.02 1.66 -3 2 C-2.01 1.34 -1.02 0.68 0 0 Z " fill="#47BC58" transform="translate(330,256)"/>
<path d="M0 0 C0.66 0 1.32 0 2 0 C2.33 1.98 2.66 3.96 3 6 C0.64031256 8.09749995 -0.54616994 8.96905704 -3.75 9.1875 C-4.4925 9.125625 -5.235 9.06375 -6 9 C-6.66 7.68 -7.32 6.36 -8 5 C-7.01 4.67 -6.02 4.34 -5 4 C-5 3.01 -5 2.02 -5 1 C-3.35 1.33 -1.7 1.66 0 2 C0 1.34 0 0.68 0 0 Z " fill="#82C287" transform="translate(358,231)"/>
<path d="M0 0 C-1.16269446 3.2555445 -2.1469468 4.09698489 -5.125 6.0625 C-6.548125 7.0215625 -6.548125 7.0215625 -8 8 C-8 8.99 -8 9.98 -8 11 C-8.99 11.33 -9.98 11.66 -11 12 C-11.33 12.66 -11.66 13.32 -12 14 C-12 13.34 -12 12.68 -12 12 C-12.99 12 -13.98 12 -15 12 C-13.69978225 8.09934676 -11.2580763 6.63959215 -8.0625 4.3125 C-7.51142578 3.89677734 -6.96035156 3.48105469 -6.39257812 3.05273438 C-2.26712592 0 -2.26712592 0 0 0 Z " fill="#689E67" transform="translate(379,233)"/>
<path d="M0 0 C2.47923801 -0.02685095 4.9581884 -0.04676547 7.4375 -0.0625 C8.14455078 -0.07087891 8.85160156 -0.07925781 9.58007812 -0.08789062 C11.38693559 -0.09653588 13.19387603 -0.05220011 15 0 C15.33 0.33 15.66 0.66 16 1 C18.18292774 1.23481693 20.37203174 1.41363323 22.5625 1.5625 C23.76003906 1.64628906 24.95757812 1.73007812 26.19140625 1.81640625 C27.11824219 1.87699219 28.04507812 1.93757813 29 2 C29 2.33 29 2.66 29 3 C21.66236293 4.17402193 14.41834582 4.09377123 7 4 C8.32 3.34 9.64 2.68 11 2 C7.37 1.67 3.74 1.34 0 1 C0 0.67 0 0.34 0 0 Z " fill="#536152" transform="translate(255,291)"/>
<path d="M0 0 C1.1055189 0.93590504 2.20935453 1.87379858 3.3125 2.8125 C3.92738281 3.33457031 4.54226563 3.85664063 5.17578125 4.39453125 C6.85424679 5.87172469 8.43882034 7.40039131 10 9 C9.67 9.66 9.34 10.32 9 11 C5.84859577 10.65930765 4.39218439 10.41923159 2.1875 8.0625 C1 6 1 6 1 4 C0.34 4 -0.32 4 -1 4 C-0.67 2.68 -0.34 1.36 0 0 Z " fill="#58AA5C" transform="translate(372,250)"/>
<path d="M0 0 C1.32 1.65 2.64 3.3 4 5 C3.34 6.32 2.68 7.64 2 9 C1.01 9 0.02 9 -1 9 C-1 9.66 -1 10.32 -1 11 C-2.32 11.33 -3.64 11.66 -5 12 C-3.68938409 7.76570244 -2.05643741 3.92592596 0 0 Z " fill="#BEBDC0" transform="translate(98,255)"/>
<path d="M0 0 C0.33 0.66 0.66 1.32 1 2 C1.66 2.33 2.32 2.66 3 3 C3 3.66 3 4.32 3 5 C6.63 5.33 10.26 5.66 14 6 C13.67 6.66 13.34 7.32 13 8 C8.38 8 3.76 8 -1 8 C-2.2077558 4.37673261 -1.54311128 3.35853631 0 0 Z " fill="#803E2B" transform="translate(224,224)"/>
<path d="M0 0 C-3.23855514 1.88915716 -6.47082252 2.65783517 -10.09765625 3.4375 C-12.30116285 3.9869945 -12.30116285 3.9869945 -15 6 C-15.66 5.67 -16.32 5.34 -17 5 C-17 4.34 -17 3.68 -17 3 C-19.31 3 -21.62 3 -24 3 C-24 2.67 -24 2.34 -24 2 C-21.50072231 1.66029235 -19.00080405 1.32811968 -16.5 1 C-15.80390625 0.90460938 -15.1078125 0.80921875 -14.390625 0.7109375 C-9.55299871 0.0838378 -4.87818804 -0.08789528 0 0 Z " fill="#76BD6F" transform="translate(322,276)"/>
<path d="M0 0 C0.75732422 0.00644531 1.51464844 0.01289063 2.29492188 0.01953125 C3.08060547 0.03628906 3.86628906 0.05304688 4.67578125 0.0703125 C5.47306641 0.07933594 6.27035156 0.08835938 7.09179688 0.09765625 C9.05742025 0.12119665 11.022889 0.15706703 12.98828125 0.1953125 C13.31828125 0.8553125 13.64828125 1.5153125 13.98828125 2.1953125 C12.99828125 3.1853125 12.00828125 4.1753125 10.98828125 5.1953125 C10.98828125 4.5353125 10.98828125 3.8753125 10.98828125 3.1953125 C5.04828125 2.8653125 -0.89171875 2.5353125 -7.01171875 2.1953125 C-3.96490814 0.16410543 -3.41053551 -0.05128625 0 0 Z " fill="#898A94" transform="translate(204.01171875,232.8046875)"/>
<path d="M0 0 C0.99 0 1.98 0 3 0 C3 0.66 3 1.32 3 2 C3.99 2 4.98 2 6 2 C5 5 5 5 2.125 6.75 C-1 8 -1 8 -4 7 C-3.67 6.01 -3.34 5.02 -3 4 C-2.34 4 -1.68 4 -1 4 C-0.67 2.68 -0.34 1.36 0 0 Z " fill="#66CE69" transform="translate(326,268)"/>
<path d="M0 0 C2.33333333 0.33333333 4.66666667 0.66666667 7 1 C9.67412698 1.08385764 12.32352708 1.04695567 15 1 C14.67 1.66 14.34 2.32 14 3 C9.05 3 4.1 3 -1 3 C-1 3.66 -1 4.32 -1 5 C-2.32 5.33 -3.64 5.66 -5 6 C-5.33 5.01 -5.66 4.02 -6 3 C-5.67 2.34 -5.34 1.68 -5 1 C-3.68 1 -2.36 1 -1 1 C-0.67 0.67 -0.34 0.34 0 0 Z " fill="#A6D6A6" transform="translate(365,230)"/>
<path d="M0 0 C0.66 0.33 1.32 0.66 2 1 C2 2.32 2 3.64 2 5 C2.66 4.67 3.32 4.34 4 4 C6.0234375 3.796875 6.0234375 3.796875 8.375 3.75 C9.53128906 3.71132812 9.53128906 3.71132812 10.7109375 3.671875 C13 4 13 4 17 7 C11.06 6.67 5.12 6.34 -1 6 C-1 1 -1 1 0 0 Z " fill="#ADCFA6" transform="translate(288,209)"/>
<path d="M0 0 C0.70189453 0.01353516 1.40378906 0.02707031 2.12695312 0.04101562 C3.85579829 0.07629818 5.58424765 0.13010417 7.3125 0.1875 C4.64860311 2.85139689 2.90926491 3.16892077 -0.82421875 3.28515625 C-1.99597656 3.27355469 -3.16773438 3.26195312 -4.375 3.25 C-6.14423828 3.23646484 -6.14423828 3.23646484 -7.94921875 3.22265625 C-8.85285156 3.21105469 -9.75648438 3.19945312 -10.6875 3.1875 C-7.97885416 -0.76650025 -4.33266512 -0.15777212 0 0 Z " fill="#99B78D" transform="translate(219.6875,208.8125)"/>
<path d="M0 0 C0.66 0.33 1.32 0.66 2 1 C1.1875 2.9375 1.1875 2.9375 0 5 C-0.99 5.33 -1.98 5.66 -3 6 C-3 5.34 -3 4.68 -3 4 C-10.92 4 -18.84 4 -27 4 C-27 3.67 -27 3.34 -27 3 C-26.2886792 2.98018066 -25.5773584 2.96036133 -24.84448242 2.93994141 C-21.62511184 2.84475133 -18.4063955 2.73504771 -15.1875 2.625 C-14.06794922 2.5940625 -12.94839844 2.563125 -11.79492188 2.53125 C-10.72177734 2.49257813 -9.64863281 2.45390625 -8.54296875 2.4140625 C-7.0583313 2.36693115 -7.0583313 2.36693115 -5.54370117 2.31884766 C-2.75924906 2.16226567 -2.75924906 2.16226567 0 0 Z " fill="#737176" transform="translate(142,254)"/>
<path d="M0 0 C11.52164009 0.96355353 11.52164009 0.96355353 17 2 C16.67 2.99 16.34 3.98 16 5 C13.7077546 4.69177379 11.41621545 4.37829126 9.125 4.0625 C7.84882813 3.88847656 6.57265625 3.71445313 5.2578125 3.53515625 C2 3 2 3 0 2 C0 1.34 0 0.68 0 0 Z " fill="#666E7A" transform="translate(144,209)"/>
<path d="M0 0 C1.32 0 2.64 0 4 0 C4 0.66 4 1.32 4 2 C7.96 2 11.92 2 16 2 C16 2.33 16 2.66 16 3 C10.06 3.495 10.06 3.495 4 4 C3.34 5.65 2.68 7.3 2 9 C0.59306362 6.37371875 -0.49157276 3.94887797 -1 1 C-0.67 0.67 -0.34 0.34 0 0 Z " fill="#ADADAE" transform="translate(251,243)"/>
<path d="M0 0 C0.66 0.33 1.32 0.66 2 1 C2 1.99 2 2.98 2 4 C0.03125 5.60546875 0.03125 5.60546875 -2.5 7.1875 C-3.3353125 7.71730469 -4.170625 8.24710938 -5.03125 8.79296875 C-5.6809375 9.19128906 -6.330625 9.58960938 -7 10 C-7 9.34 -7 8.68 -7 8 C-7.66 7.67 -8.32 7.34 -9 7 C-6.03 4.69 -3.06 2.38 0 0 Z " fill="#9CAE9F" transform="translate(369,223)"/>
<path d="M0 0 C0 0.33 0 0.66 0 1 C3.3 1.33 6.6 1.66 10 2 C10 2.33 10 2.66 10 3 C2.08 3.495 2.08 3.495 -6 4 C-6 3.67 -6 3.34 -6 3 C-8.97 2.505 -8.97 2.505 -12 2 C-12 1.67 -12 1.34 -12 1 C-7.9472484 0.01751476 -4.16138263 -0.08159574 0 0 Z " fill="#6D836A" transform="translate(211,210)"/>
<path d="M0 0 C4.29 0.33 8.58 0.66 13 1 C13 2.32 13 3.64 13 5 C12.34 5.66 11.68 6.32 11 7 C11 6.34 11 5.68 11 5 C8.56612247 3.78306124 6.58161154 3.68040104 3.875 3.4375 C2.96492188 3.35371094 2.05484375 3.26992187 1.1171875 3.18359375 C0.41851562 3.12300781 -0.28015625 3.06242188 -1 3 C-0.67 2.01 -0.34 1.02 0 0 Z " fill="#858384" transform="translate(261,232)"/>
<path d="M0 0 C0 1.32 0 2.64 0 4 C-0.66 4 -1.32 4 -2 4 C-2.33 4.66 -2.66 5.32 -3 6 C-4.65 5.67 -6.3 5.34 -8 5 C-7.67 3.35 -7.34 1.7 -7 0 C-3.86650268 -1.04449911 -3.01031744 -0.93423645 0 0 Z " fill="#FA6A18" transform="translate(225,245)"/>
<path d="M0 0 C1.39456452 0.00667256 2.78911118 0.01863093 4.18359375 0.03515625 C4.89451172 0.03966797 5.60542969 0.04417969 6.33789062 0.04882812 C8.09899388 0.06064761 9.86005411 0.07858362 11.62109375 0.09765625 C11.29109375 0.75765625 10.96109375 1.41765625 10.62109375 2.09765625 C6.64179064 3.26803952 2.74410369 3.32671236 -1.37890625 3.09765625 C-2.36890625 2.43765625 -3.35890625 1.77765625 -4.37890625 1.09765625 C-3.37890625 0.09765625 -3.37890625 0.09765625 0 0 Z " fill="#F0F9EE" transform="translate(381.37890625,220.90234375)"/>
<path d="M0 0 C4.95 0 9.9 0 15 0 C14.67 1.98 14.34 3.96 14 6 C13.67 4.68 13.34 3.36 13 2 C8.71 2 4.42 2 0 2 C0 1.34 0 0.68 0 0 Z " fill="#827F80" transform="translate(220,233)"/>
<path d="M0 0 C4.1088041 0.52529369 6.25519841 1.66807991 9.3125 4.4375 C10.00988281 5.05496094 10.70726562 5.67242187 11.42578125 6.30859375 C13 8 13 8 13 10 C12.34 10 11.68 10 11 10 C11 9.34 11 8.68 11 8 C10.41734375 7.896875 9.8346875 7.79375 9.234375 7.6875 C6.64561983 6.89095995 5.26542934 5.79149275 3.25 4 C2.63640625 3.46375 2.0228125 2.9275 1.390625 2.375 C0.93171875 1.92125 0.4728125 1.4675 0 1 C0 0.67 0 0.34 0 0 Z " fill="#A6BDA1" transform="translate(330,235)"/>
<path d="M0 0 C0.99 0.66 1.98 1.32 3 2 C5.51584891 2.24150773 5.51584891 2.24150773 8.1875 2.125 C9.53908203 2.09792969 9.53908203 2.09792969 10.91796875 2.0703125 C11.94857422 2.03550781 11.94857422 2.03550781 13 2 C12.67 2.66 12.34 3.32 12 4 C9.28553021 4.31241455 6.66090639 4.51336592 3.9375 4.625 C3.17888672 4.66367188 2.42027344 4.70234375 1.63867188 4.7421875 C-0.24047195 4.83673562 -2.12020336 4.91946756 -4 5 C-2.25 1.125 -2.25 1.125 0 0 Z " fill="#CAE8CA" transform="translate(374,224)"/>
<path d="M0 0 C-1 3 -1 3 -3 4 C-4.54023996 4.06950541 -6.08334988 4.08452357 -7.625 4.0625 C-8.85089844 4.04896484 -8.85089844 4.04896484 -10.1015625 4.03515625 C-11.04128906 4.01775391 -11.04128906 4.01775391 -12 4 C-11.34 3.34 -10.68 2.68 -10 2 C-9.01 2 -8.02 2 -7 2 C-7 1.34 -7 0.68 -7 0 C-3.98968256 -0.93423645 -3.13349732 -1.04449911 0 0 Z " fill="#92BE88" transform="translate(298,287)"/>
<path d="M0 0 C-0.33 1.65 -0.66 3.3 -1 5 C-3.97 5 -6.94 5 -10 5 C-10 4.34 -10 3.68 -10 3 C-3.375 0 -3.375 0 0 0 Z " fill="#FBEBD8" transform="translate(224,255)"/>
<path d="M0 0 C0.66 0.99 1.32 1.98 2 3 C1.34 3 0.68 3 0 3 C0 3.66 0 4.32 0 5 C0.99 5 1.98 5 3 5 C3.33 5.99 3.66 6.98 4 8 C2.68 8 1.36 8 0 8 C-0.99 8.495 -0.99 8.495 -2 9 C-2.33 9.99 -2.66 10.98 -3 12 C-3.66 12 -4.32 12 -5 12 C-3.41037341 7.96479403 -1.71767682 3.98188718 0 0 Z " fill="#B6B4B5" transform="translate(237,249)"/>
<path d="M0 0 C11 0 11 0 14 1 C15.1875 3.0625 15.1875 3.0625 16 5 C13.5185269 4.55208067 11.0403355 4.09226182 8.5625 3.625 C7.85544922 3.49867188 7.14839844 3.37234375 6.41992188 3.2421875 C4.59948 2.89377757 2.79728352 2.452957 1 2 C0.67 1.34 0.34 0.68 0 0 Z " fill="#AFE1B2" transform="translate(338,231)"/>
<path d="M0 0 C0.33 0.66 0.66 1.32 1 2 C1.928125 1.95875 2.85625 1.9175 3.8125 1.875 C7 2 7 2 10 4 C10.1875 6.625 10.1875 6.625 10 9 C9.67 7.68 9.34 6.36 9 5 C6.03 4.67 3.06 4.34 0 4 C0 4.66 0 5.32 0 6 C-0.66 6 -1.32 6 -2 6 C-1.34 4.02 -0.68 2.04 0 0 Z " fill="#C37D54" transform="translate(217,239)"/>
<path d="M0 0 C0 0.66 0 1.32 0 2 C-5.28 2.66 -10.56 3.32 -16 4 C-16.33 3.34 -16.66 2.68 -17 2 C-11.23918159 0.7017874 -5.91260345 -0.25706972 0 0 Z " fill="#A3C298" transform="translate(245,206)"/>
<path d="M0 0 C2.18092036 2.07858979 3.96390469 4.21856618 5.6875 6.6875 C6.12449219 7.31011719 6.56148438 7.93273437 7.01171875 8.57421875 C7.33785156 9.04472656 7.66398437 9.51523437 8 10 C5 10 5 10 3.0625 8.25 C2.381875 7.5075 1.70125 6.765 1 6 C0.2575 5.2575 -0.485 4.515 -1.25 3.75 C-1.8275 3.1725 -2.405 2.595 -3 2 C-2.01 1.34 -1.02 0.68 0 0 Z " fill="#54A65C" transform="translate(382,259)"/>
<path d="M0 0 C0.79921875 0.00902344 1.5984375 0.01804688 2.421875 0.02734375 C3.02515625 0.03894531 3.6284375 0.05054688 4.25 0.0625 C4.25 1.0525 4.25 2.0425 4.25 3.0625 C2.83376784 3.11697047 1.41691809 3.15550508 0 3.1875 C-0.78890625 3.21070313 -1.5778125 3.23390625 -2.390625 3.2578125 C-4.95731941 3.0453378 -6.5416067 2.34904105 -8.75 1.0625 C-5.75519083 0.1901588 -3.11424089 -0.04579766 0 0 Z " fill="#FBFBF7" transform="translate(235.75,220.9375)"/>
<path d="M0 0 C5.01113235 1.4317521 6.94469549 3.98445693 10 8 C9.01 8.33 8.02 8.66 7 9 C5.83037314 7.69013727 4.66437056 6.3770374 3.5 5.0625 C2.8503125 4.33160156 2.200625 3.60070312 1.53125 2.84765625 C0 1 0 1 0 0 Z " fill="#9FBF99" transform="translate(358,261)"/>
<path d="M0 0 C0.66 0.66 1.32 1.32 2 2 C-3.94 1.67 -9.88 1.34 -16 1 C-16 0.67 -16 0.34 -16 0 C-10.46383262 -0.81598839 -5.53675175 -1.24294427 0 0 Z " fill="#97D28A" transform="translate(285,207)"/>
<path d="M0 0 C8.57142857 -0.28571429 8.57142857 -0.28571429 12 2 C10.5 3.125 10.5 3.125 8 4 C5.2226918 3.57598348 2.70360217 2.81108065 0 2 C0 1.34 0 0.68 0 0 Z " fill="#404C52" transform="translate(233,289)"/>
<path d="M0 0 C-0.54226981 3.79588866 -2.20127563 5.47211993 -5 8 C-5.6875 5.6875 -5.6875 5.6875 -6 3 C-4.0819994 0.21889913 -3.45555657 0 0 0 Z " fill="#D6D4D6" transform="translate(272,237)"/>
<path d="M0 0 C-1.65 1.65 -3.3 3.3 -5 5 C-4.34 5.33 -3.68 5.66 -3 6 C-3.99 6.33 -4.98 6.66 -6 7 C-6.33 6.34 -6.66 5.68 -7 5 C-9.02463255 4.34786708 -9.02463255 4.34786708 -11 4 C-9.73760288 3.13341385 -8.46472499 2.28207941 -7.1875 1.4375 C-6.47980469 0.96183594 -5.77210938 0.48617188 -5.04296875 -0.00390625 C-3 -1 -3 -1 0 0 Z " fill="#68975F" transform="translate(304,282)"/>
<path d="M0 0 C-0.66 1.65 -1.32 3.3 -2 5 C-2.33 4.01 -2.66 3.02 -3 2 C-7.29 2 -11.58 2 -16 2 C-16 1.67 -16 1.34 -16 1 C-10.65097076 0.40801257 -5.39115154 -0.14187241 0 0 Z " fill="#8A8A91" transform="translate(243,219)"/>
<path d="M0 0 C0.66 0.33 1.32 0.66 2 1 C1.67 1.66 1.34 2.32 1 3 C0.34 3 -0.32 3 -1 3 C-1 3.99 -1 4.98 -1 6 C-3.64 6 -6.28 6 -9 6 C-6.12050853 3.76039553 -3.23257974 1.70135776 0 0 Z " fill="#5F9D55" transform="translate(310,267)"/>
<path d="M0 0 C-0.60990891 3.55780196 -1.5783681 6.6828589 -3 10 C-3.5534764 7.92446352 -4 6.15634036 -4 4 C-4.99 3.34 -5.98 2.68 -7 2 C-4.35261084 0.5393715 -3.10551666 0 0 0 Z " fill="#A3A8A6" transform="translate(304,220)"/>
<path d="M0 0 C4.62 0 9.24 0 14 0 C12 4 12 4 10 5 C10 4.01 10 3.02 10 2 C6.7 1.67 3.4 1.34 0 1 C0 0.67 0 0.34 0 0 Z " fill="#878C88" transform="translate(387,219)"/>
<path d="M0 0 C0.33 0.99 0.66 1.98 1 3 C-3.625 7 -3.625 7 -7 7 C-5.66667905 3.00003714 -3.5042173 2.16217663 0 0 Z " fill="#97C28B" transform="translate(306,280)"/>
<path d="M0 0 C0.99 0.33 1.98 0.66 3 1 C3 2.65 3 4.3 3 6 C1.35 6 -0.3 6 -2 6 C-1.125 1.125 -1.125 1.125 0 0 Z " fill="#F3701E" transform="translate(216,262)"/>
<path d="M0 0 C-0.33 0.99 -0.66 1.98 -1 3 C-1.66 3 -2.32 3 -3 3 C-3 3.66 -3 4.32 -3 5 C-5.3125 6.6875 -5.3125 6.6875 -8 8 C-8.99 7.67 -9.98 7.34 -11 7 C-9.54634731 5.82750647 -8.08692581 4.66216184 -6.625 3.5 C-5.40683594 2.52546875 -5.40683594 2.52546875 -4.1640625 1.53125 C-2 0 -2 0 0 0 Z " fill="#A0C29C" transform="translate(381,234)"/>
<path d="M0 0 C3.3 0.33 6.6 0.66 10 1 C10 1.99 10 2.98 10 4 C6.37 3.67 2.74 3.34 -1 3 C-0.67 2.01 -0.34 1.02 0 0 Z " fill="#87888B" transform="translate(298,232)"/>
<path d="M0 0 C1.98 0 3.96 0 6 0 C5.01 0.33 4.02 0.66 3 1 C3.99 2.32 4.98 3.64 6 5 C5.67 5.66 5.34 6.32 5 7 C3.02 6.01 1.04 5.02 -1 4 C-0.67 2.68 -0.34 1.36 0 0 Z " fill="#B9D7B1" transform="translate(327,229)"/>
<path d="M0 0 C0.99 0.33 1.98 0.66 3 1 C3 1.66 3 2.32 3 3 C3.66 3 4.32 3 5 3 C4.34 4.98 3.68 6.96 3 9 C0.86928411 6.40608501 -0.53582673 4.36525621 -1 1 C-0.67 0.67 -0.34 0.34 0 0 Z " fill="#C5C4C6" transform="translate(241,261)"/>
<path d="M0 0 C0.33 1.32 0.66 2.64 1 4 C2.32 4.33 3.64 4.66 5 5 C4.625 6.9375 4.625 6.9375 4 9 C3.01 9.495 3.01 9.495 2 10 C2 9.34 2 8.68 2 8 C1.01 7.67 0.02 7.34 -1 7 C-0.67 4.69 -0.34 2.38 0 0 Z " fill="#B1ACAA" transform="translate(236,239)"/>
<path d="M0 0 C0.66 0 1.32 0 2 0 C1.67 1.65 1.34 3.3 1 5 C-0.98 5.33 -2.96 5.66 -5 6 C-5.33 4.35 -5.66 2.7 -6 1 C-3.03 1.495 -3.03 1.495 0 2 C0 1.34 0 0.68 0 0 Z " fill="#8FBF93" transform="translate(358,231)"/>
<path d="M0 0 C0 0.99 0 1.98 0 3 C-1.98 3.99 -1.98 3.99 -4 5 C-4.99 4.34 -5.98 3.68 -7 3 C-7 2.34 -7 1.68 -7 1 C-3.535 0.505 -3.535 0.505 0 0 Z " fill="#C87B4C" transform="translate(223,259)"/>
<path d="M0 0 C0.99 0 1.98 0 3 0 C3 0.66 3 1.32 3 2 C4.32 2.33 5.64 2.66 7 3 C7.33 4.32 7.66 5.64 8 7 C5.36 5.68 2.72 4.36 0 3 C0 2.01 0 1.02 0 0 Z " fill="#95C28D" transform="translate(364,245)"/>
<path d="M0 0 C4.875 2.75 4.875 2.75 6 5 C2.25 6.125 2.25 6.125 0 5 C0 4.34 0 3.68 0 3 C-1.32 2.67 -2.64 2.34 -4 2 C-2.68 2 -1.36 2 0 2 C0 1.34 0 0.68 0 0 Z " fill="#A4C29E" transform="translate(346,227)"/>
<path d="M0 0 C0.66 0.33 1.32 0.66 2 1 C2 1.99 2 2.98 2 4 C0.03533587 5.06775224 -1.96855359 6.06553465 -4 7 C-4.66 6.67 -5.32 6.34 -6 6 C-4 4 -2 2 0 0 Z " fill="#72B274" transform="translate(331,252)"/>
<path d="M0 0 C0.66 0.99 1.32 1.98 2 3 C1.34 3 0.68 3 0 3 C0.48484276 7.64586892 0.48484276 7.64586892 2 12 C1.01 11.67 0.02 11.34 -1 11 C-2.0257259 6.58937864 -2.03684712 4.07369424 0 0 Z " fill="#9D9B9F" transform="translate(271,258)"/>
<path d="M0 0 C0.66 0.33 1.32 0.66 2 1 C-0.25 3.5625 -0.25 3.5625 -3 6 C-4.32 5.67 -5.64 5.34 -7 5 C-4.69 3.35 -2.38 1.7 0 0 Z " fill="#548355" transform="translate(324,257)"/>
<path d="M0 0 C4.29 0 8.58 0 13 0 C12.34 1.32 11.68 2.64 11 4 C10.34 4 9.68 4 9 4 C9 3.01 9 2.02 9 1 C6.03 1 3.06 1 0 1 C0 0.67 0 0.34 0 0 Z " fill="#BE6634" transform="translate(227,226)"/>
<path d="M0 0 C0.66 0 1.32 0 2 0 C2 0.66 2 1.32 2 2 C3.32 1.67 4.64 1.34 6 1 C6 1.99 6 2.98 6 4 C5.01 4.66 4.02 5.32 3 6 C2.67 5.34 2.34 4.68 2 4 C1.01 4 0.02 4 -1 4 C-0.67 2.68 -0.34 1.36 0 0 Z " fill="#84B280" transform="translate(339,243)"/>
<path d="M0 0 C1.98 0.495 1.98 0.495 4 1 C3.34 2.98 2.68 4.96 2 7 C1.01 6.67 0.02 6.34 -1 6 C-1 5.01 -1 4.02 -1 3 C-0.01 3 0.98 3 2 3 C1.34 2.67 0.68 2.34 0 2 C0 1.34 0 0.68 0 0 Z " fill="#C5C5C3" transform="translate(164,240)"/>
<path d="M0 0 C1.9609375 0.05078125 1.9609375 0.05078125 4.375 0.3125 C5.16648437 0.39113281 5.95796875 0.46976563 6.7734375 0.55078125 C9 1 9 1 12 3 C10.20866022 3.05391993 8.41686101 3.09275571 6.625 3.125 C5.62726563 3.14820313 4.62953125 3.17140625 3.6015625 3.1953125 C1 3 1 3 -1 1 C-0.67 0.67 -0.34 0.34 0 0 Z " fill="#94D596" transform="translate(335,232)"/>
<path d="M0 0 C-0.99 1.485 -0.99 1.485 -2 3 C-4.97 2.67 -7.94 2.34 -11 2 C-11 1.67 -11 1.34 -11 1 C-7.26562152 0.12132271 -3.83225427 -0.08912219 0 0 Z " fill="#6CB969" transform="translate(305,273)"/>
<path d="M0 0 C1.125 1.6875 1.125 1.6875 2 4 C1.125 6.75 1.125 6.75 0 9 C-0.66 8.67 -1.32 8.34 -2 8 C-1.34 5.36 -0.68 2.72 0 0 Z " fill="#C8C6C9" transform="translate(231,261)"/>
<path d="M0 0 C0 1.65 0 3.3 0 5 C-0.66 5 -1.32 5 -2 5 C-2 5.66 -2 6.32 -2 7 C-2.99 7 -3.98 7 -5 7 C-4.53479806 4.30182875 -3.4249099 0 0 0 Z " fill="#F2EDEF" transform="translate(166,263)"/>
<path d="M0 0 C1.32 1.65 2.64 3.3 4 5 C3.34 6.32 2.68 7.64 2 9 C1.34 9 0.68 9 0 9 C0.33 7.35 0.66 5.7 1 4 C0.34 4 -0.32 4 -1 4 C-0.67 2.68 -0.34 1.36 0 0 Z " fill="#D3D1D2" transform="translate(98,255)"/>
<path d="M0 0 C-1.36983503 3.16115776 -1.9890638 3.9927092 -5 6 C-5.99 5.67 -6.98 5.34 -8 5 C-2.25 0 -2.25 0 0 0 Z " fill="#A2BAA1" transform="translate(393,225)"/>
<path d="M0 0 C0.99 0.33 1.98 0.66 3 1 C3 1.99 3 2.98 3 4 C1.02 4.33 -0.96 4.66 -3 5 C-3 4.01 -3 3.02 -3 2 C-2.01 1.34 -1.02 0.68 0 0 Z " fill="#89A787" transform="translate(392,222)"/>
<path d="M0 0 C0.66 0.33 1.32 0.66 2 1 C2 2.32 2 3.64 2 5 C2.99 5.33 3.98 5.66 5 6 C3.02 6 1.04 6 -1 6 C-1.042721 4.33388095 -1.04063832 2.66617115 -1 1 C-0.67 0.67 -0.34 0.34 0 0 Z " fill="#EBF5E1" transform="translate(288,209)"/>
<path d="M0 0 C2.31 0 4.62 0 7 0 C7.66 1.32 8.32 2.64 9 4 C6 4 6 4 4 3 C4 2.34 4 1.68 4 1 C2.68 0.67 1.36 0.34 0 0 Z " fill="#89CC7F" transform="translate(285,276)"/>
<path d="M0 0 C1 2 1 2 0.125 5 C-1 8 -1 8 -2 10 C-2.66 10 -3.32 10 -4 10 C-3.52449439 8.51965236 -3.04448784 7.04074979 -2.5625 5.5625 C-2.29566406 4.73878906 -2.02882812 3.91507812 -1.75390625 3.06640625 C-1 1 -1 1 0 0 Z " fill="#924E2B" transform="translate(208,258)"/>
<path d="M0 0 C3.79588866 0.54226981 5.47211993 2.20127563 8 5 C7.67 5.66 7.34 6.32 7 7 C5.83040013 6.02433888 4.66438823 5.044375 3.5 4.0625 C2.8503125 3.51722656 2.200625 2.97195313 1.53125 2.41015625 C1.0259375 1.94480469 0.520625 1.47945312 0 1 C0 0.67 0 0.34 0 0 Z " fill="#8AB88A" transform="translate(374,254)"/>
<path d="M0 0 C-0.99 0.33 -1.98 0.66 -3 1 C-3 1.99 -3 2.98 -3 4 C-4.65 3.67 -6.3 3.34 -8 3 C-5.53387212 -0.1151089 -3.89156016 -0.31553191 0 0 Z " fill="#49B558" transform="translate(342,251)"/>
<path d="M0 0 C0.99 0.66 1.98 1.32 3 2 C2.67 2.99 2.34 3.98 2 5 C0.35 4.67 -1.3 4.34 -3 4 C-3 3.34 -3 2.68 -3 2 C-2.01 1.34 -1.02 0.68 0 0 Z " fill="#F1772E" transform="translate(216,247)"/>
<path d="M0 0 C-6.75 3 -6.75 3 -9 3 C-9 2.34 -9 1.68 -9 1 C-5.57367167 -0.61798838 -3.61944899 -1.34053666 0 0 Z " fill="#D7F0D5" transform="translate(391,224)"/>
</svg>
